<svg xmlns="http://www.w3.org/2000/svg" xmlns:xlink="http://www.w3.org/1999/xlink" width="612.383" height="94.953" viewBox="0 0 612.383 94.953">
  <defs>
    <clipPath id="clip-path">
      <rect id="Rectangle_8470" data-name="Rectangle 8470" width="612.383" height="94.951" fill="none"/>
    </clipPath>
  </defs>
  <g id="Group_48685" data-name="Group 48685" transform="translate(0 0)">
    <path id="Path_35434" data-name="Path 35434" d="M104.287,0,86.233,65.654,68.116,0,52.141.126,34.09,65.654,15.97,0H0L26.577,90.906H41.6L60.1,26.265,78.721,90.906H93.743L120.257,0Z" transform="translate(0)" fill="#00aac1"/>
    <g id="Group_48684" data-name="Group 48684" transform="translate(0 0.001)">
      <g id="Group_48683" data-name="Group 48683" clip-path="url(#clip-path)">
        <path id="Path_35435" data-name="Path 35435" d="M81.838,80.191A35.942,35.942,0,0,1,63.657,75.71,31.7,31.7,0,0,1,51.444,63.274a37.282,37.282,0,0,1-4.387-18.31,41.472,41.472,0,0,1,4.291-19.412A31.416,31.416,0,0,1,63.28,12.769,33.908,33.908,0,0,1,80.954,8.225q10.608,0,18.026,4.954a29.387,29.387,0,0,1,11.013,13.984q3.6,9.031,2.718,21.273H97.623V42.882q-.065-11.109-3.916-16.223T81.585,21.545q-9.342,0-13.888,5.775T63.153,44.207q0,10.357,4.544,16.035t13.257,5.684a18.219,18.219,0,0,0,9.693-2.495A16.308,16.308,0,0,0,96.926,56.2l15.025,4.546A30.525,30.525,0,0,1,99.862,75.077a33.289,33.289,0,0,1-18.024,5.114M58.356,36.947h46.906V48.436H58.356Z" transform="translate(72.131 12.607)" fill="#00aac1"/>
        <path id="Path_35436" data-name="Path 35436" d="M77.762,78.335V10.156H91.333V31.306h1.831v47.03Zm47.283,0V45.51a64.205,64.205,0,0,0-.443-7.132,25.594,25.594,0,0,0-2.049-7.545,14.634,14.634,0,0,0-4.8-5.965q-3.188-2.337-8.617-2.335a18.08,18.08,0,0,0-5.744.945,13.11,13.11,0,0,0-5.144,3.252,16.307,16.307,0,0,0-3.693,6.312A31.828,31.828,0,0,0,93.164,43.3L84.14,39.446a36.144,36.144,0,0,1,3.376-15.78A26.85,26.85,0,0,1,97.457,12.4q6.565-4.2,16.16-4.2,7.576,0,12.5,2.525a22.082,22.082,0,0,1,7.829,6.438,28.069,28.069,0,0,1,4.291,8.333,42.667,42.667,0,0,1,1.8,8.363q.41,3.944.41,6.408V78.335Z" transform="translate(119.197 12.57)" fill="#00aac1"/>
        <path id="Path_35437" data-name="Path 35437" d="M109.489,90.906V0H124.7V76.638h40.151V90.906Z" transform="translate(167.83 -0.001)" fill="#fff"/>
        <path id="Path_35438" data-name="Path 35438" d="M167.989,80.192a33.947,33.947,0,0,1-17.867-4.61,31.379,31.379,0,0,1-11.836-12.72,40.009,40.009,0,0,1-4.2-18.654A39.517,39.517,0,0,1,138.382,25.4a31.635,31.635,0,0,1,11.93-12.626,36.919,36.919,0,0,1,35.6.063,31.61,31.61,0,0,1,11.869,12.72,39.772,39.772,0,0,1,4.23,18.654,39.66,39.66,0,0,1-4.26,18.715,31.612,31.612,0,0,1-11.9,12.69,34.1,34.1,0,0,1-17.867,4.579m0-14.268q9.092,0,13.51-6.061t4.417-15.656q0-9.912-4.481-15.813t-13.447-5.9a17.231,17.231,0,0,0-10.071,2.746,16.1,16.1,0,0,0-5.836,7.637,31.242,31.242,0,0,0-1.895,11.332q0,9.912,4.513,15.813t13.287,5.9" transform="translate(205.537 12.608)" fill="#fff"/>
        <path id="Path_35439" data-name="Path 35439" d="M198.291,80.192q-10.543,0-17.993-4.7a30.722,30.722,0,0,1-11.4-12.847A42.377,42.377,0,0,1,164.9,44.208a41.5,41.5,0,0,1,4.134-18.591,31.057,31.057,0,0,1,11.585-12.753,33.326,33.326,0,0,1,17.864-4.638q11.618,0,19.668,5.838a26.879,26.879,0,0,1,10.509,15.942l-15.149,4.1a16.692,16.692,0,0,0-5.874-8.556,15.209,15.209,0,0,0-9.341-3.06,15.3,15.3,0,0,0-15.466,10.542,31.834,31.834,0,0,0-1.831,11.172q0,9.726,4.356,15.719t12.94,6q6.06,0,9.561-2.776a16.718,16.718,0,0,0,5.273-8.022L228.654,58.6q-3.157,10.418-11.046,16t-19.318,5.587" transform="translate(252.758 12.608)" fill="#fff"/>
        <path id="Path_35440" data-name="Path 35440" d="M195.027,90.906,195.154,0h15.4V55.555l24.938-32.828h19l-26.453,34.09,28.722,34.09H236.629L210.556,58.08V90.906Z" transform="translate(298.946 -0.001)" fill="#fff"/>
        <path id="Path_35441" data-name="Path 35441" d="M264.77,41.484a19,19,0,1,1-19-19,19,19,0,0,1,19,19" transform="translate(347.614 34.47)" fill="#00aac1"/>
      </g>
    </g>
  </g>
</svg>
