<svg id="Group_47825" data-name="Group 47825" xmlns="http://www.w3.org/2000/svg" xmlns:xlink="http://www.w3.org/1999/xlink" width="24" height="24" viewBox="0 0 24 24">
  <defs>
    <clipPath id="clip-path">
      <rect id="Rectangle_8194" data-name="Rectangle 8194" width="24" height="24" fill="#fff"/>
    </clipPath>
  </defs>
  <g id="Group_47622" data-name="Group 47622" clip-path="url(#clip-path)">
    <path id="Path_35062" data-name="Path 35062" d="M11.973,19.691a10.328,10.328,0,0,1-7.015-3.3A11.894,11.894,0,0,1,2.341,12.5a1.365,1.365,0,0,1-.058-.948,11.589,11.589,0,0,1,6.8-6.71c3.478-1.212,6.586-.288,9.3,2.094A12.81,12.81,0,0,1,21.644,11.4a1.3,1.3,0,0,1,.074.942,11.883,11.883,0,0,1-7.032,6.8,20.823,20.823,0,0,1-2.713.551m0-2.763A4.96,4.96,0,1,0,12,7.009a4.96,4.96,0,1,0-.025,9.919" fill="#fff"/>
    <path id="Path_35063" data-name="Path 35063" d="M12,9.611c0-.04-.009-.206-.036-.368-.081-.468.023-.581.474-.5a3.236,3.236,0,0,1,2.8,3.091,3.258,3.258,0,0,1-6.482.574c-.053-.449.048-.536.528-.459A2.254,2.254,0,0,0,12,9.611" fill="#fff"/>
  </g>
</svg>
