<svg id="Group_47851" data-name="Group 47851" xmlns="http://www.w3.org/2000/svg" xmlns:xlink="http://www.w3.org/1999/xlink" width="226.668" height="225.475" viewBox="0 0 226.668 225.475">
  <defs>
    <clipPath id="clip-path">
      <rect id="Rectangle_8285" data-name="Rectangle 8285" width="226.668" height="225.475" fill="none"/>
    </clipPath>
  </defs>
  <g id="Group_47850" data-name="Group 47850" clip-path="url(#clip-path)">
    <path id="Path_35284" data-name="Path 35284" d="M279.386,266.369a24.945,24.945,0,0,1-35.276,0l-27.455-27.456a14.59,14.59,0,0,1,0-20.633l24.959-24.959,37.772,37.771a24.943,24.943,0,0,1,0,35.276" transform="translate(-60.024 -54.637)" fill="#0290a4"/>
    <path id="Path_35286" data-name="Path 35286" d="M195.173,127.879l-2.587-.872c.377-1.119.725-2.265,1.036-3.4l2.634.718c-.325,1.192-.689,2.389-1.083,3.558m1.956-7.174-2.672-.562c.243-1.156.456-2.334.631-3.5l2.7.405c-.184,1.221-.405,2.453-.659,3.66m1.1-7.353-2.719-.247c.107-1.176.181-2.372.219-3.553l2.729.088c-.04,1.235-.117,2.483-.229,3.712m-2.488-7.36c-.031-1.182-.1-2.377-.2-3.555l2.72-.229c.1,1.23.172,2.479.2,3.713Zm-.6-7.092c-.168-1.17-.372-2.35-.608-3.508l2.675-.544c.246,1.209.46,2.443.635,3.665Z" transform="translate(-54.429 -26.806)" fill="#0b2b25"/>
    <path id="Path_35287" data-name="Path 35287" d="M32.276,126.781c-.6-1.079-1.174-2.191-1.709-3.3l2.461-1.182c.511,1.066,1.061,2.13,1.634,3.161Zm-3.217-6.706c-.468-1.143-.907-2.315-1.306-3.484l2.583-.882c.382,1.118.8,2.24,1.249,3.332Zm-2.4-7.039c-.328-1.186-.627-2.4-.887-3.612l2.669-.573c.25,1.158.535,2.321.849,3.457Zm-1.562-7.269c-.188-1.217-.344-2.458-.462-3.689l2.718-.261c.113,1.179.262,2.368.443,3.533Zm-.71-7.4q-.046-1.229-.047-2.458,0-.632.013-1.262l2.729.056q-.012.6-.011,1.206,0,1.176.044,2.353Zm2.871-7.22-2.722-.215c.1-1.234.232-2.478.4-3.7l2.7.375c-.162,1.166-.291,2.357-.384,3.537m.973-7.048-2.677-.532c.24-1.215.52-2.434.831-3.626l2.642.689c-.3,1.139-.565,2.306-.8,3.468m1.794-6.884-2.6-.843c.382-1.176.8-2.354,1.253-3.5l2.542,1c-.43,1.1-.833,2.225-1.2,3.349m2.592-6.623L30.134,69.45c.516-1.119,1.073-2.24,1.656-3.329L34.2,67.408c-.557,1.043-1.09,2.115-1.585,3.185m3.355-6.269L33.641,62.9c.643-1.049,1.329-2.095,2.037-3.109l2.238,1.562c-.677.971-1.333,1.973-1.949,2.976m4.071-5.83L37.9,56.8c.763-.966,1.567-1.925,2.388-2.848l2.04,1.814c-.786.884-1.555,1.8-2.286,2.726" transform="translate(-6.878 -15.249)" fill="#0b2b25"/>
    <g id="Group_47852" data-name="Group 47852" transform="translate(0 -0.001)">
      <path id="Path_35285" data-name="Path 35285" d="M80.762,161.523A80.762,80.762,0,0,1,23.655,23.654,80.762,80.762,0,0,1,137.869,137.868a80.233,80.233,0,0,1-57.107,23.655m0-158.794A78.032,78.032,0,0,0,25.585,135.938,78.032,78.032,0,1,0,135.939,25.584,77.523,77.523,0,0,0,80.762,2.729" transform="translate(0 0.001)" fill="#0b2b25"/>
      <rect id="Rectangle_8283" data-name="Rectangle 8283" width="2.73" height="21.302" transform="matrix(0.707, -0.707, 0.707, 0.707, 122.235, 148.813)" fill="#0b2b25"/>
      <rect id="Rectangle_8284" data-name="Rectangle 8284" width="2.73" height="21.302" transform="translate(148.252 122.796) rotate(-45)" fill="#0b2b25"/>
      <path id="Path_35288" data-name="Path 35288" d="M246.1,276.847a31.175,31.175,0,0,1-22.189-9.191L182.408,226.15l44.378-44.379,41.506,41.506a31.381,31.381,0,0,1-22.19,53.57m-59.834-50.7,39.576,39.576a28.651,28.651,0,1,0,40.518-40.518l-39.576-39.576Z" transform="translate(-51.553 -51.372)" fill="#0b2b25"/>
    </g>
    <path id="Path_35289" data-name="Path 35289" d="M95.917,120.09a44.762,44.762,0,0,1,.383-6.2,21.5,21.5,0,0,1,1.3-5.027A18.45,18.45,0,0,1,100,104.6a28.836,28.836,0,0,1,3.674-3.953q1.735-1.53,3.217-2.986a24.759,24.759,0,0,0,2.552-2.91,12.277,12.277,0,0,0,1.658-3.062,10.025,10.025,0,0,0,.587-3.446q0-4.335-2.016-6.482a7.792,7.792,0,0,0-5.947-2.144,10.064,10.064,0,0,0-3.087.486,7.213,7.213,0,0,0-2.679,1.556,7.852,7.852,0,0,0-1.889,2.732,10.545,10.545,0,0,0-.764,3.953H80.5a22.053,22.053,0,0,1,1.886-9.262,18.309,18.309,0,0,1,4.951-6.457,20.732,20.732,0,0,1,7.323-3.8,31.672,31.672,0,0,1,9.059-1.252,32.046,32.046,0,0,1,9.595,1.328,19.7,19.7,0,0,1,7.145,3.854,16.586,16.586,0,0,1,4.466,6.276,22.15,22.15,0,0,1,1.556,8.549,17.133,17.133,0,0,1-1.02,6.073,21.809,21.809,0,0,1-2.755,5.1,37.2,37.2,0,0,1-3.981,4.618q-2.246,2.22-4.745,4.517a17.635,17.635,0,0,0-2.375,2.653,13.393,13.393,0,0,0-1.531,2.783,13.157,13.157,0,0,0-.817,3.113,32.989,32.989,0,0,0-.28,3.649Zm-1.351,15.788a7.983,7.983,0,0,1,.578-3.068,7.187,7.187,0,0,1,1.634-2.44,7.727,7.727,0,0,1,2.568-1.634,9.668,9.668,0,0,1,6.739,0,7.685,7.685,0,0,1,2.565,1.634,7.085,7.085,0,0,1,1.634,2.44,7.984,7.984,0,0,1,.581,3.068,7.854,7.854,0,0,1-.581,3.019,7.1,7.1,0,0,1-1.634,2.44,7.424,7.424,0,0,1-2.565,1.609,10.107,10.107,0,0,1-6.739,0,7.463,7.463,0,0,1-2.568-1.609,7.2,7.2,0,0,1-1.634-2.44,7.852,7.852,0,0,1-.578-3.019" transform="translate(-22.752 -19.097)" fill="#0290a4"/>
  </g>
</svg>
