<svg xmlns="http://www.w3.org/2000/svg" xmlns:xlink="http://www.w3.org/1999/xlink" width="24" height="24" viewBox="0 0 24 24">
  <defs>
    <clipPath id="clip-path">
      <rect id="Rectangle_8254" data-name="Rectangle 8254" width="24" height="24" fill="#6f7d7d"/>
    </clipPath>
  </defs>
  <g id="Group_47771" data-name="Group 47771" transform="translate(24 24) rotate(180)">
    <g id="Group_47771-2" data-name="Group 47771" clip-path="url(#clip-path)">
      <path id="Path_35269" data-name="Path 35269" d="M12,23.56A11.559,11.559,0,1,1,23.56,12,11.573,11.573,0,0,1,12,23.56M12,2.441A9.559,9.559,0,1,0,21.56,12,9.571,9.571,0,0,0,12,2.441" fill="#6f7d7d"/>
      <path id="Path_35270" data-name="Path 35270" d="M15.417,11.078,12.662,8.31c-.1-.1-.2-.2-.3-.3a.963.963,0,0,1-.067-1.377.981.981,0,0,1,1.382.078c.823.809,1.635,1.629,2.451,2.445q1,1,2,2a1,1,0,0,1,.02,1.651q-2.2,2.208-4.41,4.416a1.018,1.018,0,0,1-.944.384.863.863,0,0,1-.707-.61.921.921,0,0,1,.248-.98q1.347-1.344,2.7-2.682c.108-.108.208-.223.383-.413-.276-.015-.452-.034-.628-.034q-4.188,0-8.376,0a.889.889,0,0,1-.844-1.349.963.963,0,0,1,.946-.454q4.169.006,8.335,0h.575" fill="#6f7d7d"/>
    </g>
  </g>
</svg>
