<svg xmlns="http://www.w3.org/2000/svg" xmlns:xlink="http://www.w3.org/1999/xlink" width="24" height="24" viewBox="0 0 24 24">
  <defs>
    <clipPath id="clip-path">
      <rect id="Rectangle_8115" data-name="Rectangle 8115" width="24" height="24" fill="#fff"/>
    </clipPath>
  </defs>
  <g id="Group_47405" data-name="Group 47405" transform="translate(0 24) rotate(-90)" opacity="0.6">
    <g id="Group_47388" data-name="Group 47388" clip-path="url(#clip-path)">
      <path id="Path_34820" data-name="Path 34820" d="M13.38,8.348q0,2.242,0,4.484a1.309,1.309,0,0,1-.763,1.382,1.24,1.24,0,0,1-1.452-.452q-2.217-2.23-4.444-4.45a1.242,1.242,0,0,1,.011-2.027q2.2-2.207,4.406-4.411a1.277,1.277,0,0,1,1.5-.465,1.326,1.326,0,0,1,.74,1.4c0,1.513,0,3.026,0,4.539" transform="translate(2.208 3.691)" fill="#fff"/>
    </g>
  </g>
</svg>
