<svg id="Group_47957" data-name="Group 47957" xmlns="http://www.w3.org/2000/svg" xmlns:xlink="http://www.w3.org/1999/xlink" width="461.148" height="388.976" viewBox="0 0 461.148 388.976">
  <defs>
    <clipPath id="clip-path">
      <rect id="Rectangle_8305" data-name="Rectangle 8305" width="461.148" height="388.976" fill="none"/>
    </clipPath>
    <clipPath id="clip-path-2">
      <rect id="Rectangle_8304" data-name="Rectangle 8304" width="461.148" height="388.973" fill="none"/>
    </clipPath>
    <clipPath id="clip-path-3">
      <rect id="Rectangle_8303" data-name="Rectangle 8303" width="446.342" height="349.766" fill="none"/>
    </clipPath>
    <clipPath id="clip-path-4">
      <rect id="Rectangle_8302" data-name="Rectangle 8302" width="446.341" height="349.766" fill="none"/>
    </clipPath>
    <clipPath id="clip-path-5">
      <rect id="Rectangle_8301" data-name="Rectangle 8301" width="446.342" height="349.762" fill="none"/>
    </clipPath>
  </defs>
  <g id="Group_47956" data-name="Group 47956" clip-path="url(#clip-path)">
    <g id="Group_47955" data-name="Group 47955">
      <g id="Group_47954" data-name="Group 47954" clip-path="url(#clip-path-2)">
        <g id="Group_47953" data-name="Group 47953" transform="translate(14.807 32.106)" opacity="0.35">
          <g id="Group_47952" data-name="Group 47952">
            <g id="Group_47951" data-name="Group 47951" clip-path="url(#clip-path-3)">
              <g id="Group_47950" data-name="Group 47950" transform="translate(0)">
                <g id="Group_47949" data-name="Group 47949" clip-path="url(#clip-path-4)">
                  <g id="Group_47948" data-name="Group 47948" transform="translate(0)" opacity="0.238" style="mix-blend-mode: normal;isolation: isolate">
                    <g id="Group_47947" data-name="Group 47947">
                      <g id="Group_47946" data-name="Group 47946" clip-path="url(#clip-path-5)">
                        <path id="Path_35306" data-name="Path 35306" d="M442.841,311.284c-23.327,40.752-68.484,71.888-136.743,71.888H158.063c-39.463,0-76.459-18.938-98.476-50.734-19.037-27.484-32.79-62.106-39.518-98.42-5.71-30.814-6.367-62.848-.9-92.788C41.172,20.8,164.457,33.82,164.457,33.82c118.616,8.309,80.106,88.956,185.2,88.956,103.362,0,137.318,111.433,93.185,188.508" transform="translate(-15.408 -33.409)" fill="#00aac1"/>
                      </g>
                    </g>
                  </g>
                </g>
              </g>
            </g>
          </g>
        </g>
        <path id="Path_35307" data-name="Path 35307" d="M231.075,175.406H153.789c-8.27,0-10.778,2.491-10.778,10.763q-.016,66.125,0,132.245c.006,9.845,2.364,12.155,12.157,12.157q50.665,0,101.331-.006c5.67,0,8.434,1.578,8.565,4.88.14,3.561-2.72,5.387-8.516,5.387-34.349,0-68.7-.234-103.045.111-10.8.108-20.988-7.1-20.872-20.742q.566-67.408.009-134.816c-.1-12.053,8.546-21.324,20.557-20.373,5.71.456,5.9-.127,5.925-6.054.05-14.74.055-29.482.171-44.222a25.75,25.75,0,0,1,.865-6.337c.751-2.855,2.764-4.356,5.788-3.785,3.062.577,4.077,2.82,4.036,5.707-.2,15.015-.428,30.031-.585,45.049-.111,10.734-.411,9.724,9.779,9.727H286.519c6.568,0,6.835-.3,6.838-6.72.011-12.589.038-25.189,0-37.783-.08-27.607-14.431-49.495-39.933-59.923-14.489-5.923-29.341-5.478-44.013-.155-3.346,1.214-6.378,1.5-7.88-2.314-1.476-3.76.751-5.915,4.11-7.176,14.2-5.319,28.687-6.5,43.383-2.56,23.659,6.347,40.6,20.8,49.3,43.691,3.181,8.37,4.532,17.727,5.087,26.735.833,13.545.329,27.182.174,40.776-.047,4.036,1.249,5.875,5.446,5.421,12.64-1.368,21.441,8.419,21.153,21.04-.609,27.034-.2,54.095-.212,81.144q0,1.717-.069,3.435c-.111,2.941-2.038,4.963-4.538,4.623-1.948-.265-4.03-2.251-5.272-4.02-.825-1.181-.336-3.327-.336-5.04q-.025-40.147-.028-80.29c0-8.064-2.466-10.579-10.5-10.588q-39.071-.037-78.145-.009Z" transform="translate(-5.174 -1.8)" fill="#fff"/>
        <path id="Path_35308" data-name="Path 35308" d="M93.235.028c21.885,0,43.769-.077,65.651.028,14.638.072,25.013,9.129,27.173,23.388A26.876,26.876,0,0,1,171.189,51.4c-3.636,1.7-3.363,3.324-1.843,6.246,4.151,7.976,8.03,16.1,12.108,24.121,1.36,2.676,2.058,5.757-.6,7.3a8.716,8.716,0,0,1-7.322.028c-19.392-10.632-38.556-21.672-57.927-32.346a21.176,21.176,0,0,0-9.644-2.563c-26.458-.207-52.92-.055-79.377-.168C15.568,53.968,5.382,46.844,1.9,37.22-2.345,25.449.624,13.683,9.749,6.124A26.774,26.774,0,0,1,27.58.016C49.469.1,71.353.047,93.235.047Zm69.375,70.989,1.192-1.189c-2.64-5.321-5.363-10.607-7.9-15.978-3.219-6.809-1.815-9.247,5.661-10.2a16.7,16.7,0,0,0,14.052-13.665c1.674-11.416-5.531-19.617-17.521-19.631q-64.813-.082-129.626.009a27.293,27.293,0,0,0-6.372.706C13.725,13.1,8.13,23.659,11.013,31.755c2.8,7.868,8.491,12,16.841,12.012,27.328.053,54.654,0,81.982.158a16.909,16.909,0,0,1,7.667,1.981c10.91,5.934,21.653,12.174,32.481,18.259,4.174,2.348,8.416,4.574,12.626,6.856" transform="translate(0 0)" fill="#00606d"/>
        <path id="Path_35309" data-name="Path 35309" d="M240.352,260.013c0,7.567.053,15.134-.038,22.7-.022,1.818-.033,3.94-.941,5.355a4.678,4.678,0,0,1-8.477-.358c-.827-1.49-.742-3.584-.748-5.415q-.066-22.487-.009-44.974c.009-5.766,1.644-8.438,5.065-8.425,3.4.016,5.093,2.745,5.114,8.416.028,7.567.009,15.134.009,22.7Z" transform="translate(-8.978 -8.93)" fill="#00aac1"/>
        <path id="Path_35310" data-name="Path 35310" d="M163.025,71.441c-4.21-2.281-8.457-4.508-12.626-6.856-10.827-6.086-21.57-12.326-32.481-18.259a16.909,16.909,0,0,0-7.667-1.981c-27.328-.158-54.654-.1-81.982-.158-8.35-.016-14.039-4.147-16.841-12.012-2.883-8.1,2.712-18.657,11.079-20.69a27.293,27.293,0,0,1,6.372-.706q64.813-.058,129.626-.009c11.989.013,19.195,8.215,17.521,19.631a16.7,16.7,0,0,1-14.052,13.672c-7.476.954-8.88,3.393-5.661,10.2,2.541,5.371,5.263,10.656,7.9,15.978l-1.192,1.189" transform="translate(-0.416 -0.419)" fill="#00aac1"/>
        <path id="Path_35311" data-name="Path 35311" d="M46.558,22.695a4.558,4.558,0,0,1,1.609.469l2.817,1.345-.069-5.837a4.083,4.083,0,0,1,1.007-.539,3.941,3.941,0,0,1,1.473-.267,2.862,2.862,0,0,1,1.711.5,1.879,1.879,0,0,1,.7,1.641q0,.4-.1,1.843c-.069.961-.146,1.889-.237,2.787l4.889-2.549a3.79,3.79,0,0,1,1.345,1.073,2.677,2.677,0,0,1,.6,1.743,1.7,1.7,0,0,1-.571,1.441,9.2,9.2,0,0,1-1.506.905L57.015,28.73l3.89,4.891A3.008,3.008,0,0,1,59.9,35.332a2.678,2.678,0,0,1-1.81.7,2.013,2.013,0,0,1-1.575-.64q-.572-.637-1.245-1.512L53.392,31.2l-3.217,4.7a1.608,1.608,0,0,1-.568.133h-.5a3.427,3.427,0,0,1-2.314-.673,2.13,2.13,0,0,1-.769-1.674,3.362,3.362,0,0,1,1.007-2.146l2.547-2.883-5.228-1.677a5.476,5.476,0,0,1-.267-1.743,2.558,2.558,0,0,1,.673-1.843,2.372,2.372,0,0,1,1.81-.7" transform="translate(-1.72 -0.697)" fill="#fff"/>
        <path id="Path_35312" data-name="Path 35312" d="M92.088,22.695a4.558,4.558,0,0,1,1.609.469l2.817,1.345-.069-5.832a4.107,4.107,0,0,1,1-.544,3.941,3.941,0,0,1,1.473-.267,2.862,2.862,0,0,1,1.711.5,1.879,1.879,0,0,1,.7,1.641q0,.4-.1,1.843c-.069.961-.146,1.889-.237,2.787l4.894-2.549a3.79,3.79,0,0,1,1.345,1.073,2.677,2.677,0,0,1,.6,1.743,1.7,1.7,0,0,1-.571,1.441,9.2,9.2,0,0,1-1.506.905l-3.219,1.476,3.89,4.891a3.008,3.008,0,0,1-1.007,1.711,2.678,2.678,0,0,1-1.81.7,2.013,2.013,0,0,1-1.575-.64q-.567-.637-1.239-1.509L98.918,31.2,95.7,35.9a1.608,1.608,0,0,1-.568.133h-.5a3.427,3.427,0,0,1-2.314-.673,2.13,2.13,0,0,1-.769-1.674,3.362,3.362,0,0,1,1.007-2.146L95.1,28.655l-5.228-1.677a5.476,5.476,0,0,1-.267-1.743,2.558,2.558,0,0,1,.673-1.843,2.372,2.372,0,0,1,1.81-.7" transform="translate(-3.496 -0.697)" fill="#fff"/>
        <path id="Path_35313" data-name="Path 35313" d="M136.783,22.695a4.558,4.558,0,0,1,1.609.469l2.817,1.345-.069-5.837a4.082,4.082,0,0,1,1.007-.539,3.941,3.941,0,0,1,1.473-.267,2.862,2.862,0,0,1,1.711.5,1.879,1.879,0,0,1,.7,1.641q0,.4-.1,1.843c-.069.961-.146,1.889-.237,2.787l4.894-2.549a3.79,3.79,0,0,1,1.345,1.073,2.677,2.677,0,0,1,.6,1.743,1.7,1.7,0,0,1-.571,1.441,9.2,9.2,0,0,1-1.506.905l-3.219,1.476,3.89,4.891a3.008,3.008,0,0,1-1.007,1.711,2.678,2.678,0,0,1-1.81.7,2.013,2.013,0,0,1-1.575-.64q-.566-.637-1.239-1.509L143.617,31.2,140.4,35.895a1.608,1.608,0,0,1-.568.133h-.5a3.426,3.426,0,0,1-2.314-.673,2.13,2.13,0,0,1-.769-1.674,3.364,3.364,0,0,1,1.007-2.146l2.547-2.883-5.228-1.677a5.477,5.477,0,0,1-.267-1.743,2.558,2.558,0,0,1,.673-1.843,2.368,2.368,0,0,1,1.81-.7" transform="translate(-5.24 -0.697)" fill="#fff"/>
        <path id="Path_35314" data-name="Path 35314" d="M369.157,343.718a4.138,4.138,0,0,1-.2-8.27l26.3-1.311-1.311-26.3a4.139,4.139,0,0,1,3.928-4.34h0a4.086,4.086,0,0,1,4.332,3.825c0,.035,0,.069,0,.1l1.517,30.428a4.132,4.132,0,0,1-3.909,4.344h-.019l-30.431,1.517c-.069.006-.14.006-.207.006" transform="translate(-14.242 -11.84)" fill="#00aac1"/>
        <path id="Path_35315" data-name="Path 35315" d="M396.8,342.105a4.133,4.133,0,0,1-2.678-.985l-24.635-20.94a42,42,0,0,0-16.1-9.1,41.567,41.567,0,0,0-51.722,27.926,4.138,4.138,0,0,1-7.931-2.367,49.839,49.839,0,0,1,62.018-33.488h0a50.15,50.15,0,0,1,19.184,10.808l24.541,20.853A4.138,4.138,0,0,1,396.8,342.1" transform="translate(-11.453 -11.745)" fill="#00aac1"/>
        <path id="Path_35316" data-name="Path 35316" d="M287.283,400.7a4.14,4.14,0,0,1-4.132-3.931l-1.517-30.433A4.132,4.132,0,0,1,285.552,362h.011l30.428-1.517a4.086,4.086,0,0,1,4.332,3.823c0,.036,0,.07,0,.106a4.133,4.133,0,0,1-3.917,4.337H316.4l-26.3,1.311,1.311,26.3a4.138,4.138,0,0,1-3.926,4.34h0c-.069.006-.14.006-.207.006" transform="translate(-10.987 -14.064)" fill="#fff"/>
        <path id="Path_35317" data-name="Path 35317" d="M341.02,403.1a49.473,49.473,0,0,1-33.393-12.9l-24.538-20.853a4.138,4.138,0,1,1,5.36-6.306l24.635,20.941A41.564,41.564,0,0,0,380.9,365.159a4.138,4.138,0,0,1,7.931,2.367,50.169,50.169,0,0,1-10.808,19.189,49.53,49.53,0,0,1-34.477,16.326q-1.267.062-2.527.061" transform="translate(-10.988 -14.125)" fill="#fff"/>
      </g>
    </g>
  </g>
</svg>
