<svg xmlns="http://www.w3.org/2000/svg" xmlns:xlink="http://www.w3.org/1999/xlink" width="87" height="87" viewBox="0 0 87 87">
  <defs>
    <clipPath id="clip-path">
      <rect id="Rectangle_8221" data-name="Rectangle 8221" width="57" height="57" transform="translate(0 0.221)" fill="#17876d"/>
    </clipPath>
  </defs>
  <g id="Group_47786" data-name="Group 47786" transform="translate(-989 -325)">
    <g id="Group_47719" data-name="Group 47719" transform="translate(1004 339.779)">
      <g id="Group_47718" data-name="Group 47718" clip-path="url(#clip-path)">
        <path id="Path_35243" data-name="Path 35243" d="M21.32,41.543a3.572,3.572,0,0,1-2.413-.94L2.477,25.483A3.562,3.562,0,1,1,7.3,20.241L21.076,32.914,45.809,5.307a3.562,3.562,0,0,1,5.306,4.755l-27.141,30.3a3.558,3.558,0,0,1-2.482,1.18c-.057,0-.114,0-.171,0" transform="translate(1.824 5.668)" fill="#17876d"/>
      </g>
    </g>
    <g id="Ellipse_184" data-name="Ellipse 184" transform="translate(989 325)" fill="none" stroke="#17876d" stroke-width="4">
      <circle cx="43.5" cy="43.5" r="43.5" stroke="none"/>
      <circle cx="43.5" cy="43.5" r="41.5" fill="none"/>
    </g>
  </g>
</svg>
