<svg xmlns="http://www.w3.org/2000/svg" xmlns:xlink="http://www.w3.org/1999/xlink" width="241.777" height="37.489" viewBox="0 0 241.777 37.489">
  <defs>
    <clipPath id="clip-path">
      <rect id="Rectangle_8473" data-name="Rectangle 8473" width="241.777" height="37.488" transform="translate(0 0)" fill="none"/>
    </clipPath>
  </defs>
  <g id="Group_48699" data-name="Group 48699" transform="translate(0 0)">
    <path id="Path_35445" data-name="Path 35445" d="M41.174,0,34.046,25.921,26.893,0,20.586.05,13.459,25.921,6.305,0H0L10.493,35.891h5.932l7.3-25.521L31.08,35.891h5.931L47.479,0Z" fill="#00aac1"/>
    <g id="Group_48698" data-name="Group 48698">
      <g id="Group_48697" data-name="Group 48697" clip-path="url(#clip-path)">
        <path id="Path_35446" data-name="Path 35446" d="M60.789,36.638a14.191,14.191,0,0,1-7.178-1.769,12.516,12.516,0,0,1-4.822-4.91,14.719,14.719,0,0,1-1.732-7.229,16.374,16.374,0,0,1,1.694-7.664,12.4,12.4,0,0,1,4.711-5.047A13.387,13.387,0,0,1,60.44,8.225a12.531,12.531,0,0,1,7.117,1.956A11.6,11.6,0,0,1,71.9,15.7a18.876,18.876,0,0,1,1.073,8.4H67.021V21.908Q67,17.522,65.475,15.5a5.6,5.6,0,0,0-4.786-2.019,6.548,6.548,0,0,0-5.483,2.28q-1.794,2.281-1.794,6.667a9.9,9.9,0,0,0,1.794,6.331,6.3,6.3,0,0,0,5.234,2.244,7.193,7.193,0,0,0,3.827-.985,6.438,6.438,0,0,0,2.479-2.854l5.932,1.8A12.052,12.052,0,0,1,67.9,34.619a13.143,13.143,0,0,1-7.116,2.019M51.518,19.565H70.037V24.1H51.518Z" fill="#00aac1"/>
        <path id="Path_35447" data-name="Path 35447" d="M77.762,35.891V8.973H83.12v8.35h.723V35.891Zm18.668,0V22.931a25.35,25.35,0,0,0-.175-2.816,10.1,10.1,0,0,0-.809-2.979,5.778,5.778,0,0,0-1.895-2.355,5.637,5.637,0,0,0-3.4-.922,7.138,7.138,0,0,0-2.268.373,5.176,5.176,0,0,0-2.031,1.284,6.438,6.438,0,0,0-1.458,2.492,12.566,12.566,0,0,0-.549,4.05L80.28,20.537a14.27,14.27,0,0,1,1.333-6.23,10.6,10.6,0,0,1,3.925-4.449A11.609,11.609,0,0,1,91.918,8.2a10.79,10.79,0,0,1,4.936,1,8.718,8.718,0,0,1,3.091,2.542,11.082,11.082,0,0,1,1.694,3.29,16.845,16.845,0,0,1,.71,3.3q.162,1.557.162,2.53V35.891Z" fill="#00aac1"/>
        <path id="Path_35448" data-name="Path 35448" d="M109.489,35.891V0H115.5V30.258h15.851v5.633Z" fill="#0d1931"/>
        <path id="Path_35449" data-name="Path 35449" d="M147.473,36.639a13.4,13.4,0,0,1-7.054-1.82,12.389,12.389,0,0,1-4.673-5.022,15.8,15.8,0,0,1-1.657-7.365,15.6,15.6,0,0,1,1.695-7.427,12.49,12.49,0,0,1,4.71-4.985,14.576,14.576,0,0,1,14.057.025,12.48,12.48,0,0,1,4.686,5.022,15.7,15.7,0,0,1,1.67,7.365,15.658,15.658,0,0,1-1.682,7.389,12.481,12.481,0,0,1-4.7,5.01,13.462,13.462,0,0,1-7.054,1.808m0-5.633a6.165,6.165,0,0,0,5.334-2.393,10.234,10.234,0,0,0,1.744-6.181,10.075,10.075,0,0,0-1.769-6.243,6.245,6.245,0,0,0-5.309-2.33,6.8,6.8,0,0,0-3.976,1.084,6.357,6.357,0,0,0-2.3,3.015,12.335,12.335,0,0,0-.748,4.474,10.013,10.013,0,0,0,1.782,6.243,6.19,6.19,0,0,0,5.246,2.331" fill="#0d1931"/>
        <path id="Path_35450" data-name="Path 35450" d="M178.079,36.639a13.038,13.038,0,0,1-7.1-1.857,12.13,12.13,0,0,1-4.5-5.072,16.731,16.731,0,0,1-1.582-7.278,16.385,16.385,0,0,1,1.632-7.34,12.262,12.262,0,0,1,4.574-5.035,13.157,13.157,0,0,1,7.053-1.831,12.868,12.868,0,0,1,7.765,2.305,10.612,10.612,0,0,1,4.149,6.294l-5.981,1.62a6.59,6.59,0,0,0-2.319-3.378,6,6,0,0,0-3.688-1.208,6.042,6.042,0,0,0-6.106,4.162,12.568,12.568,0,0,0-.723,4.411,10.311,10.311,0,0,0,1.72,6.206,6.832,6.832,0,0,0,8.884,1.272,6.6,6.6,0,0,0,2.082-3.167l6.131,1.372a11.563,11.563,0,0,1-4.361,6.318,12.862,12.862,0,0,1-7.627,2.206" fill="#0d1931"/>
        <path id="Path_35451" data-name="Path 35451" d="M195.026,35.891,195.076,0h6.081V21.934L211,8.973h7.5L208.061,22.432,219.4,35.891h-7.95l-10.294-12.96v12.96Z" fill="#0d1931"/>
        <path id="Path_35452" data-name="Path 35452" d="M241.777,29.988a7.5,7.5,0,1,1-7.5-7.5,7.5,7.5,0,0,1,7.5,7.5" fill="#00aac1"/>
      </g>
    </g>
  </g>
</svg>
