<svg id="Group_669" data-name="Group 669" xmlns="http://www.w3.org/2000/svg" xmlns:xlink="http://www.w3.org/1999/xlink" width="542.291" height="450.802" viewBox="0 0 542.291 450.802">
  <defs>
    <clipPath id="clip-path">
      <rect id="Rectangle_276" data-name="Rectangle 276" width="542.291" height="450.802" fill="none"/>
    </clipPath>
  </defs>
  <g id="Group_668" data-name="Group 668" clip-path="url(#clip-path)">
    <path id="Path_610" data-name="Path 610" d="M366.424,150.264v16.52s-1.531,9.345-9.222,9.555-9.33.21-9.33.21-9.331-2.2-9.586-8.715-.365-17.5-.365-17.5a40.568,40.568,0,0,0,14.872,2.17,33.382,33.382,0,0,0,13.632-2.24" transform="translate(-16.62 -7.391)" fill="#00aac1"/>
    <path id="Path_611" data-name="Path 611" d="M460.3,259.045s24.349-1.26,38.855,13.4,35.356,62.23,35.356,62.23,9.076,23.31,9.44,34.019,1.057,27.335-14.252,34.755a157.833,157.833,0,0,1-25.514,10.081l4.666,49H375.992s.619-33.6,2.551-48.335l5.176-54.285-7.29-8.574s-20.959,15.539-41.079,11.55-20.411-30.344-20.411-30.344-1.239-18.34-1.093-29.155,1.9-46.62,1.9-46.62-.256-5.88,23.072-5.39,26.061,4.83,26.061,4.83l1.384,42.35s10.1-17.08,15.564-24.116a31.421,31.421,0,0,1,6.265-6.572,32.445,32.445,0,0,1,7.951-4.592c3.171-1.155,20.23-4.235,20.23-4.235Z" transform="translate(-15.436 -12.363)" fill="#0d1931"/>
    <path id="Path_612" data-name="Path 612" d="M0,230.742q0,3.249.159,6.494t.491,6.479q.328,3.233.822,6.447t1.15,6.4q.657,3.188,1.476,6.34t1.8,6.262q.98,3.109,2.116,6.17t2.429,6.062q1.292,3,2.735,5.941t3.036,5.8q1.593,2.867,3.33,5.655t3.614,5.49q1.877,2.7,3.89,5.314t4.158,5.125q2.144,2.513,4.415,4.921t4.66,4.708q2.39,2.3,4.9,4.483t5.119,4.246q2.613,2.064,5.33,4t5.527,3.744q2.813,1.807,5.713,3.479t5.884,3.206q2.984,1.533,6.041,2.925t6.182,2.637q3.126,1.244,6.311,2.341T97.7,357.46q3.238.946,6.519,1.737t6.6,1.426q3.317.636,6.664,1.114t6.714.8q3.366.321,6.746.482t6.762.163q3.384,0,6.763-.156t6.746-.474q3.367-.317,6.715-.792t6.666-1.108q3.319-.632,6.6-1.421t6.52-1.729q3.238-.941,6.424-2.035t6.313-2.335q3.126-1.242,6.185-2.63t6.044-2.919q2.984-1.53,5.886-3.2t5.716-3.473q2.814-1.8,5.532-3.739t5.334-4q2.617-2.059,5.124-4.241t4.9-4.478q2.393-2.3,4.667-4.7t4.419-4.918q2.146-2.512,4.163-5.12t3.9-5.31q1.881-2.7,3.621-5.487t3.334-5.652q1.6-2.865,3.043-5.8t2.743-5.938q1.3-3,2.435-6.06t2.122-6.167q.983-3.109,1.8-6.261t1.483-6.337q.66-3.186,1.157-6.4t.828-6.447q.332-3.233.5-6.478t.166-6.494q0-3.249-.166-6.493t-.5-6.479q-.332-3.233-.828-6.447t-1.157-6.4q-.66-3.186-1.483-6.338t-1.8-6.26q-.981-3.109-2.122-6.168t-2.435-6.06q-1.3-3-2.743-5.939t-3.043-5.8q-1.594-2.865-3.334-5.652t-3.621-5.487q-1.88-2.7-3.9-5.31t-4.163-5.12q-2.146-2.51-4.419-4.918t-4.667-4.7q-2.392-2.3-4.9-4.477t-5.123-4.242q-2.616-2.059-5.334-3.994t-5.533-3.739q-2.814-1.8-5.716-3.473t-5.886-3.2q-2.985-1.53-6.044-2.918t-6.185-2.63q-3.126-1.242-6.312-2.335t-6.425-2.035q-3.238-.943-6.52-1.73t-6.6-1.421q-3.319-.632-6.666-1.107t-6.714-.793q-3.367-.317-6.747-.474t-6.763-.156q-3.379,0-6.754.162t-6.737.478q-3.363.318-6.705.795t-6.657,1.111q-3.315.633-6.592,1.422t-6.511,1.73q-3.233.943-6.415,2.035t-6.3,2.335q-3.122,1.242-6.177,2.629T72.819,114.2q-2.981,1.529-5.879,3.2t-5.709,3.47q-2.81,1.8-5.524,3.735t-5.327,3.99q-2.611,2.058-5.116,4.237T40.37,137.3q-2.39,2.293-4.661,4.7T31.3,146.905q-2.145,2.507-4.159,5.113t-3.893,5.3q-1.878,2.7-3.617,5.48t-3.333,5.643q-1.593,2.861-3.041,5.794t-2.74,5.929q-1.3,3-2.435,6.051t-2.123,6.159q-.983,3.1-1.807,6.252t-1.484,6.329Q2,208.139,1.5,211.349t-.831,6.438q-.334,3.229-.5,6.469T0,230.742" transform="translate(0 -4.849)" fill="#0d1931"/>
    <path id="Path_613" data-name="Path 613" d="M201.44,240.9a16.019,16.019,0,0,1,2.466-1.95,16.479,16.479,0,0,1,2.815-1.45,16.673,16.673,0,0,1,3.057-.893,16.922,16.922,0,0,1,6.359,0,16.673,16.673,0,0,1,3.057.893,16.481,16.481,0,0,1,2.815,1.45,16.065,16.065,0,0,1,2.466,1.95l6.269,6.02a15.776,15.776,0,0,1,2.02,2.373,15.436,15.436,0,0,1,1.5,2.7,15.11,15.11,0,0,1,0,11.966,15.472,15.472,0,0,1-1.5,2.7,15.772,15.772,0,0,1-2.02,2.372l-45.853,44.03a16.2,16.2,0,0,1-2.471,1.939,16.433,16.433,0,0,1-2.816,1.44,16.938,16.938,0,0,1-12.46,0,16.433,16.433,0,0,1-2.816-1.44,16.2,16.2,0,0,1-2.471-1.939l-94.4-88.445a15.755,15.755,0,0,1-2.019-2.372,15.45,15.45,0,0,1-1.5-2.705,15.106,15.106,0,0,1,0-11.965,15.407,15.407,0,0,1,1.5-2.7,15.714,15.714,0,0,1,2.019-2.373l6.306-6.02a16.108,16.108,0,0,1,2.466-1.938,16.493,16.493,0,0,1,2.812-1.44,16.909,16.909,0,0,1,12.443,0,16.494,16.494,0,0,1,2.812,1.44,16.154,16.154,0,0,1,2.466,1.938L173.3,267.847Z" transform="translate(-3.084 -9.44)" fill="#fff"/>
    <path id="Path_614" data-name="Path 614" d="M198.887,259.333s26.061.49,44.322,26.145a79.482,79.482,0,0,1,10.205,22.33c4.776,15.12,9.915,41.755,9.915,41.755a116.136,116.136,0,0,1,3.244,26.634c-.62,10.5-4.921,24.955-23.729,27.37l.62,59.29H108.857l.62-59.29s-16.365.6-22.854-9.2-7.107-21-5.322-33.285,10.425-46.515,12.685-55.16A74.838,74.838,0,0,1,101.7,289.04a76.826,76.826,0,0,1,11.682-14.623,58.4,58.4,0,0,1,15.582-10.16,60.089,60.089,0,0,1,18.134-4.889Z" transform="translate(-3.956 -12.755)" fill="#00aac1"/>
    <path id="Path_615" data-name="Path 615" d="M154.711,213.763v1.855s-9.95-1.89-11.262,5.984c0,0-.328,11.305,11.846,7,0,0,1.676,11.97,6.014,15.575v1.68l-10.425,10.115,4.884,28h11.408l9.3-12.565,8.93,12.356h11.117l6.123-27.16-11.627-9.765v-2.7a23.5,23.5,0,0,0,4.386-6.775,22.821,22.821,0,0,0,1.809-7.785c.984-.245,10.17,2.2,11.7-7.21s-10.935-6.825-10.935-6.825v-4.9a43.971,43.971,0,0,1-7.581-13.23,55.025,55.025,0,0,0-21.87,7c-9.185,5.845-13.814,9.345-13.814,9.345" transform="translate(-7.055 -9.71)" fill="#fff"/>
    <path id="Path_616" data-name="Path 616" d="M222.147,291.174s9.185,4.305,10.5,12.425a20.006,20.006,0,0,1-.633,11.463,20.3,20.3,0,0,1-1.666,3.526,20.772,20.772,0,0,1-2.317,3.167,21.185,21.185,0,0,1-2.889,2.7,21.675,21.675,0,0,1-3.36,2.139,22.08,22.08,0,0,1-3.715,1.5l-.4-33.6Z" transform="translate(-10.706 -14.321)" fill="#fff"/>
    <path id="Path_617" data-name="Path 617" d="M212.688,286.72l-1.64,1.785h-4.884a24.73,24.73,0,0,1,6.524-1.785" transform="translate(-10.14 -14.102)" fill="#fff"/>
    <path id="Path_618" data-name="Path 618" d="M138.094,298.315V309.1a53.346,53.346,0,0,0,12.284,1.714c5.067,0,12.393.876,13.887,5.775s-2.332,5.67-2.332,5.67,4.593,1.611,4.847,5.495a4.825,4.825,0,0,1-.3,2.858,5.047,5.047,0,0,1-1.854,2.252,7.665,7.665,0,0,1,1.13,4.97c-.547,2.345-2.151,5.775-11.736,6.125s-17.715,0-22.782-2.8-6.67-1.89-9-10.71-2.369-17.745.838-21.735,2.989-9.87,15.017-10.4" transform="translate(-5.93 -14.673)" fill="#fff"/>
    <path id="Path_619" data-name="Path 619" d="M187.572,384.964H165.228q-1.3,0-2.6-.123t-2.58-.368q-1.279-.244-2.529-.609t-2.455-.843q-1.205-.479-2.357-1.071t-2.236-1.286q-1.085-.7-2.095-1.492t-1.932-1.682q-.923-.886-1.751-1.855t-1.554-2.011q-.725-1.043-1.341-2.148a24.972,24.972,0,0,1-1.993-4.621,24.52,24.52,0,0,1-1.144-7.407V314.37a24.607,24.607,0,0,1,1.144-7.407,25.047,25.047,0,0,1,1.993-4.621q.616-1.105,1.341-2.148t1.554-2.011q.829-.968,1.751-1.855t1.932-1.682q1.008-.794,2.095-1.492t2.236-1.286q1.151-.592,2.357-1.071t2.455-.844q1.249-.364,2.529-.608t2.58-.368q1.3-.123,2.6-.123h22.344q1.3,0,2.6.123t2.58.368q1.279.244,2.529.608t2.455.844q1.207.479,2.357,1.071t2.237,1.286q1.085.7,2.095,1.492t1.932,1.682q.923.886,1.75,1.855a25.3,25.3,0,0,1,1.554,2.011q.725,1.043,1.341,2.148a25.229,25.229,0,0,1,1.115,2.264,24.628,24.628,0,0,1,2.022,9.764v45.079a24.617,24.617,0,0,1-.511,4.978,24.935,24.935,0,0,1-1.512,4.786q-.5,1.157-1.115,2.263t-1.341,2.148a25.292,25.292,0,0,1-1.554,2.011q-.829.968-1.75,1.855t-1.932,1.682q-1.01.794-2.095,1.492t-2.237,1.286q-1.151.592-2.357,1.071t-2.455.843q-1.249.365-2.529.609t-2.58.368q-1.3.123-2.6.123" transform="translate(-6.82 -14.207)" fill="#fff"/>
    <path id="Path_620" data-name="Path 620" d="M211.033,288.63l9.95-9.309,5.978,5.809-9.623,8.785s-1.239-5.845-6.3-5.285" transform="translate(-10.38 -13.738)" fill="#00aac1"/>
    <path id="Path_621" data-name="Path 621" d="M414.244,207.834s-8.566-11.48.255-13.755c0,0-5.942-11.094,1.568-17.219s14.944-6.4,20.483-3.745a33.867,33.867,0,0,1,10.643,10.5s13.45-1.75,17.751,4.13,5.832,8.54,5.614,15.19A10.646,10.646,0,0,1,469.4,208.1a11.115,11.115,0,0,1-3.5,4.074,7.484,7.484,0,0,0-2.619-1.753,7.723,7.723,0,0,0-3.14-.556,44.016,44.016,0,0,0-6.889,1.015,8.865,8.865,0,0,1-2.177-.773,8.644,8.644,0,0,1-1.885-1.3,8.373,8.373,0,0,1-1.459-1.732,8.14,8.14,0,0,1-.929-2.042,83.693,83.693,0,0,1-2.552-11.864,44.364,44.364,0,0,1-16.621,6.159,34.279,34.279,0,0,1-10.388,0l.474,3.5Z" transform="translate(-20.191 -8.436)" fill="#00aac1"/>
    <path id="Path_622" data-name="Path 622" d="M452.639,213.675a11,11,0,0,1,2.457-1.469,11.362,11.362,0,0,1,8.478-.211c6.159,2.31,5.03,11.025,3.644,12.005s-6.087,5.915-11.919,3.5l1.459,20.2,8.493,8.714-17.168,36.785-1.932-2.484s-18.334,55.229-20.011,60.234-4.264,12.81-4.264,12.81-1.348-39.515-1.348-46.095.875-22.61.875-22.61l1.021-8.96c-.511,1.05-.511-30.205-.511-30.205l5.9-8.014v-3.85s-9.039-2.24-10.352-8.19V223.44a17.083,17.083,0,0,1-2.329-5.027,16.733,16.733,0,0,1-.588-5.473,18.62,18.62,0,0,1,2.916-8.12v-4.375s17.641.945,27.118-6.23c0,0,0,10.5,3.39,13.754A17.985,17.985,0,0,0,453.331,212Z" transform="translate(-20.388 -9.552)" fill="#fff"/>
    <path id="Path_623" data-name="Path 623" d="M443.143,228.69s-4.666.841-4.775,4.165a39.047,39.047,0,0,0,0,4.376,11.715,11.715,0,0,1-5.759-.28c-1.64-.98-3.863-3.5-2.478-4.514a6.756,6.756,0,0,1,4.847-.7,2.684,2.684,0,0,0,.906-.007,2.637,2.637,0,0,0,.848-.307,2.562,2.562,0,0,0,.687-.57,2.433,2.433,0,0,0,.438-.762c.547-1.12.693-3.009,2.624-3.115a2.489,2.489,0,0,1,.872.037,2.45,2.45,0,0,1,.8.334,2.33,2.33,0,0,1,.624.585,2.231,2.231,0,0,1,.366.76" transform="translate(-21.134 -11.163)" fill="#282847"/>
    <path id="Path_624" data-name="Path 624" d="M442.4,288.008l-6.16,8.225,3.937,15.015-17.35,56.91c-.619-.385-1.6-60.445-1.6-60.445l5.76-11.795-.657-10.219,8.019-10.5Z" transform="translate(-20.718 -13.536)" fill="#00aac1"/>
    <path id="Path_625" data-name="Path 625" d="M417.457,381.543v5.215a44.122,44.122,0,0,1-9.441.49,42.938,42.938,0,0,0-11.664,0c-2.114.629-3.9,6.195-1.931,9.275a6.139,6.139,0,0,0-2.254,2.417,5.837,5.837,0,0,0-.662,3.182,12.587,12.587,0,0,0,2.916,5.7,4.815,4.815,0,0,0-2.042,1.534,4.537,4.537,0,0,0-.947,2.316,5.845,5.845,0,0,0,.08,2.033,5.943,5.943,0,0,0,.768,1.9,6.176,6.176,0,0,0,1.372,1.55,6.408,6.408,0,0,0,1.826,1.032,54.429,54.429,0,0,0,15.418,2.275c4.519-.245,15.236-1.75,16.912-3.5l1.421-1.47a49.04,49.04,0,0,0-.292-19.775c-2.259-9.555-6.925-13.79-11.481-14.175" transform="translate(-19.25 -18.766)" fill="#fff"/>
    <path id="Path_626" data-name="Path 626" d="M383.855,339.289s3.026-3.5-.364-11.83-.729-17.5,10.352-19.215a14.609,14.609,0,0,1,4.854.069,14.353,14.353,0,0,1,1.576.381,14.13,14.13,0,0,1,1.519.553,14.213,14.213,0,0,1,2.791,1.593,13.809,13.809,0,0,1,2.334,2.165,13.635,13.635,0,0,1,.956,1.263,13.459,13.459,0,0,1,.8,1.361,13.319,13.319,0,0,1,.628,1.44,12.966,12.966,0,0,1,.719,3.039,12.949,12.949,0,0,1-.029,3.117c-1.057,7-1.531,8.82.875,15.19s2.332,24.745-17.058,25.2c-17.424.42-16.293-16.94-9.951-24.325" transform="translate(-18.67 -15.153)" fill="#fff"/>
    <path id="Path_627" data-name="Path 627" d="M412.623,294.837c.255,4.27-1.932,7.875-4.847,8.05s-5.467-3.219-5.723-7.49,1.932-7.875,4.847-8.014,5.723,3.184,5.723,7.454" transform="translate(-19.774 -14.135)" fill="#fff"/>
    <path id="Path_628" data-name="Path 628" d="M429.886,418.574s-3.645,14-8.419,13.335-7.874-9.555-7.874-9.555Z" transform="translate(-20.342 -20.587)" fill="#282847"/>
    <path id="Path_629" data-name="Path 629" d="M404.114,420.354s-19.172,2.03-26.535-1.715l-.328-40.74a139.117,139.117,0,0,0,20.12,1.855,178.683,178.683,0,0,0,19.391-1.855v8.68a42.8,42.8,0,0,1-11.117.84c-6.123-.35-10.935-1.61-11.918,2.415a9.471,9.471,0,0,0,.474,7,5.594,5.594,0,0,0-2.339,1.958,5.283,5.283,0,0,0-.941,2.837,6.1,6.1,0,0,0,.165,1.915,6.194,6.194,0,0,0,.753,1.78,6.392,6.392,0,0,0,1.271,1.483,6.627,6.627,0,0,0,1.673,1.052s-2.77.7-2.479,4.935,5.759,7.6,11.81,7.56" transform="translate(-18.555 -18.587)" fill="#00aac1"/>
    <path id="Path_630" data-name="Path 630" d="M358.418,260.7l-.219-8.4s8.42,1.924,8.785,3.919-8.566,4.48-8.566,4.48" transform="translate(-17.618 -12.409)" fill="#282847"/>
    <path id="Path_631" data-name="Path 631" d="M323.526,252.781c0,.385,1.24,8.295,1.24,8.295s-9.331-1.505-9-4.305,7.763-3.99,7.763-3.99" transform="translate(-15.53 -12.433)" fill="#282847"/>
    <path id="Path_632" data-name="Path 632" d="M321.038,232.875l2.807,15.82,1.239,9.38s22.271,3.92,31.565-.35l-.437-13.369s5.358-15.645,5.9-17.78a8.144,8.144,0,0,0-.237-4.91,8.288,8.288,0,0,0-.733-1.5,8.444,8.444,0,0,0-1.026-1.337,8.677,8.677,0,0,0-1.277-1.118,8.881,8.881,0,0,0-1.48-.859,9.076,9.076,0,0,0-1.625-.564s-.984-24.5-7-24.5-7.035,5.74-6.671,11.236a61.664,61.664,0,0,0,1.385,9.834c-.729.7-2.005-3.5-7.29-2.974s-5.868,7.629-5.868,7.629-1.6-6.509-6.488-6.055-5.758,8.05-5.066,13.02a38.14,38.14,0,0,0,2.3,8.4" transform="translate(-15.667 -9.433)" fill="#fff"/>
    <path id="Path_633" data-name="Path 633" d="M201.253,214.225s6.707-22.54-6.234-24.955c0,0-3.644-8.225-17.021-8.085s-21.031,4.235-24.53,12.39a38.078,38.078,0,0,0-1.239,19.39l2.879,1.855v-1.855a53.932,53.932,0,0,1,7.341-6.381,55.017,55.017,0,0,1,8.418-5,55.918,55.918,0,0,1,9.221-3.464,56.487,56.487,0,0,1,9.72-1.811s5.431,11.585,8.419,13.4v4.97Z" transform="translate(-7.452 -8.911)" fill="#00aac1"/>
    <path id="Path_634" data-name="Path 634" d="M314.038,98.856a43.059,43.059,0,0,0,3.519,17.056,43.9,43.9,0,0,0,1.943,3.954q1.074,1.931,2.339,3.753t2.711,3.514q1.445,1.693,3.056,3.242t3.372,2.939q1.761,1.389,3.657,2.607t3.905,2.251q2.009,1.033,4.115,1.872t4.287,1.476q2.182.636,4.417,1.065t4.5.644q2.269.215,4.549.217t4.549-.212q2.269-.214,4.5-.64t4.419-1.06q2.181-.635,4.288-1.472t4.118-1.867q2.011-1.031,3.907-2.247t3.66-2.6q1.763-1.388,3.375-2.936t3.06-3.238q1.446-1.691,2.715-3.512a44.115,44.115,0,0,0,4.291-7.7,43.081,43.081,0,0,0,3.313-12.684,42.8,42.8,0,0,0-.665-13.062,43.177,43.177,0,0,0-2.638-8.36,44.023,44.023,0,0,0-1.946-3.953q-1.075-1.931-2.341-3.752t-2.713-3.512q-1.446-1.693-3.058-3.241t-3.373-2.937q-1.763-1.389-3.659-2.605T382.313,59.6q-2.01-1.031-4.116-1.87t-4.288-1.473q-2.182-.636-4.418-1.063t-4.5-.642q-2.269-.215-4.549-.215t-4.546.215q-2.268.214-4.5.641t-4.415,1.061q-2.181.635-4.285,1.472t-4.115,1.867q-2.009,1.031-3.9,2.246t-3.657,2.6q-1.761,1.386-3.374,2.933t-3.057,3.237q-1.446,1.69-2.714,3.509t-2.342,3.747q-1.074,1.928-1.948,3.95a43.248,43.248,0,0,0-2.644,8.352,42.775,42.775,0,0,0-.9,8.688" transform="translate(-15.446 -2.672)" fill="#00aac1"/>
    <path id="Path_635" data-name="Path 635" d="M378.133,376.45c0,1.715,8.675,3.08,19.355,3.08s19.318-1.364,19.318-3.08-8.674-3.115-19.318-3.115-19.355,1.4-19.355,3.115" transform="translate(-18.598 -18.362)" fill="#fff"/>
    <path id="Path_636" data-name="Path 636" d="M186.726,287.958,178.2,275.6,168.9,287.538Z" transform="translate(-8.307 -13.555)" fill="#282847"/>
    <path id="Path_637" data-name="Path 637" d="M227.441,284.859l-5.906-5.7,2.952-3.22,6.124,5.88Z" transform="translate(-10.896 -13.572)" fill="#fff"/>
    <path id="Path_638" data-name="Path 638" d="M139.487,387.752a37.779,37.779,0,0,1-1.347,5.374,38.435,38.435,0,0,1-4.978,9.938,39.337,39.337,0,0,1-3.53,4.366,40,40,0,0,1-4.137,3.843,40.572,40.572,0,0,1-4.659,3.247,41.7,41.7,0,0,1-10.507,4.452l.51-9.135a33.75,33.75,0,0,0,10.268-3.186,32.721,32.721,0,0,0,8.65-6.194c8.711-8.505,8.419-13.65,8.419-13.65Z" transform="translate(-5.426 -19.025)" fill="#282847"/>
    <path id="Path_639" data-name="Path 639" d="M215.172,388.819s2.041,26.284,34.3,30.2l-.51-9.134a29.8,29.8,0,0,1-11.557-1.5,29.231,29.231,0,0,1-5.3-2.4,28.62,28.62,0,0,1-4.683-3.384,45.475,45.475,0,0,1-10.935-14.735Z" transform="translate(-10.583 -19.077)" fill="#282847"/>
    <path id="Path_640" data-name="Path 640" d="M204.973,207.5a42.217,42.217,0,0,1-1.385,8.015l-2.624.49a20.1,20.1,0,0,1-.4-4.865,6.383,6.383,0,0,1-1.568-1.539,5.612,5.612,0,0,0,3.346-.113,5.444,5.444,0,0,0,1.48-.793,5.235,5.235,0,0,0,1.151-1.194" transform="translate(-9.787 -10.206)" fill="#fff"/>
    <path id="Path_641" data-name="Path 641" d="M166.625,205.848s-10.934,3.5-15.127,1.015l.729,8.574,2.879.6v-1.855Z" transform="translate(-7.451 -10.125)" fill="#fff"/>
    <path id="Path_642" data-name="Path 642" d="M458.749,210.951c-1.895.63-3.644,1.085-3.644,1.085a8.866,8.866,0,0,1-2.183-.778,8.641,8.641,0,0,1-1.887-1.307,8.4,8.4,0,0,1-1.459-1.743,8.1,8.1,0,0,1-.922-2.052,82.694,82.694,0,0,1-2.552-11.83s7.655,17.85,12.648,16.625" transform="translate(-21.941 -9.558)" fill="#fff"/>
    <path id="Path_643" data-name="Path 643" d="M414.5,194.081s-5.941-11.1,1.567-17.22a20.426,20.426,0,0,1,6.745-4.029,21.024,21.024,0,0,1,7.836-1.256,11.673,11.673,0,0,0-1.85.506,11.417,11.417,0,0,0-1.733.8,11.29,11.29,0,0,0-1.567,1.073,10.967,10.967,0,0,0-1.352,1.313,10.691,10.691,0,0,0-1.1,1.515,10.522,10.522,0,0,0-1.324,3.454,10.372,10.372,0,0,0-.185,1.838c0,11.551,8.821,16.135,15.673,14.42a32.258,32.258,0,0,1-9.586,2.835,34.339,34.339,0,0,1-10.388,0l.473,3.5-3.354,5.039s-8.6-11.514.146-13.79" transform="translate(-20.194 -8.438)" fill="#fff"/>
    <path id="Path_644" data-name="Path 644" d="M436.585,278.481l-6.67,8.12.875,9.975-9.951,20.475.364-9.345,6.343-11.48-1.24-10.535,8.019-10.64Z" transform="translate(-20.699 -13.528)" fill="#fff"/>
    <path id="Path_645" data-name="Path 645" d="M554.38,374.77s-16.693,0-23.073,10.99-5.65,16-4.957,20.266a23.722,23.722,0,0,0,3.39,8.189l14.141-7a21.028,21.028,0,0,0,8.019-9.52,46.829,46.829,0,0,0,2.479-22.925" transform="translate(-25.867 -18.433)" fill="#00aac1"/>
    <path id="Path_646" data-name="Path 646" d="M217.675,294.554c.511-.21,9.769-9.1,9.769-9.1a46.383,46.383,0,0,0-6.488-7.385,98.027,98.027,0,0,0-10.5,9.625c1.093.98,9.986-8.085,9.986-8.085l5.431,5.461-8.566,8.26c0,1.154.183,1.225.365,1.225" transform="translate(-10.351 -13.677)" fill="#282847"/>
    <path id="Path_647" data-name="Path 647" d="M227.419,285.514a44.232,44.232,0,0,0,3.644-3.255,46.439,46.439,0,0,0-6.524-7.245c-1.021,0-4.192,3.044-4.192,3.044,1.057,1.015,3.645-1.5,3.645-1.5l5.431,5.214-2.624,2.521c.218,1.154.4,1.225.62,1.225" transform="translate(-10.838 -13.526)" fill="#282847"/>
    <path id="Path_648" data-name="Path 648" d="M205.684,289.44a16.626,16.626,0,0,1,6.962-1.924c0-1.436-3.644-1.4-7.29.594-.182,1.226.073,1.33.328,1.33" transform="translate(-10.097 -14.092)" fill="#282847"/>
    <path id="Path_649" data-name="Path 649" d="M114.283,269.18c.511-1.225-46.327-45.115-46.327-45.115a14.975,14.975,0,0,1-1.913-2.253,14.694,14.694,0,0,1-1.421-2.568,14.372,14.372,0,0,1,0-11.356,14.7,14.7,0,0,1,1.421-2.568,15.031,15.031,0,0,1,1.913-2.254l6.269-6.02a15.465,15.465,0,0,1,2.349-1.837,15.722,15.722,0,0,1,2.674-1.363,15.92,15.92,0,0,1,2.9-.841,16.169,16.169,0,0,1,6.027,0,15.928,15.928,0,0,1,2.9.841,15.756,15.756,0,0,1,2.674,1.363,15.408,15.408,0,0,1,2.348,1.837l56.314,52.5c1.057-1.015-55.257-53.48-55.257-53.48a16.962,16.962,0,0,0-2.581-2.037,17.263,17.263,0,0,0-2.946-1.514,17.668,17.668,0,0,0-13.041,0,17.254,17.254,0,0,0-2.945,1.514,16.916,16.916,0,0,0-2.581,2.037l-6.27,6.021a16.458,16.458,0,0,0-2.114,2.476,16.16,16.16,0,0,0-1.571,2.824,15.836,15.836,0,0,0-.967,3.064,15.727,15.727,0,0,0,0,6.372,15.836,15.836,0,0,0,.967,3.064,16.16,16.16,0,0,0,1.571,2.824,16.466,16.466,0,0,0,2.114,2.477l46.837,43.89a.716.716,0,0,0,.656.1" transform="translate(-3.04 -9.407)" fill="#282847"/>
    <path id="Path_650" data-name="Path 650" d="M237.4,272a15.425,15.425,0,0,0,4.082-5.306,14.86,14.86,0,0,0,1.422-6.454,15.411,15.411,0,0,0-1.282-6.26,15.91,15.91,0,0,0-3.713-5.29l-6.269-6.02a16.86,16.86,0,0,0-2.576-2.036,17.25,17.25,0,0,0-2.941-1.513,17.637,17.637,0,0,0-13.023,0,17.251,17.251,0,0,0-2.941,1.513,16.859,16.859,0,0,0-2.576,2.036l-9.549,9.134c1.056,1.015,10.606-8.154,10.606-8.154a15.261,15.261,0,0,1,2.346-1.843,15.646,15.646,0,0,1,2.674-1.369,16.079,16.079,0,0,1,11.831,0,15.646,15.646,0,0,1,2.674,1.369,15.263,15.263,0,0,1,2.346,1.843l6.269,6.055a14.937,14.937,0,0,1,1.913,2.254,14.652,14.652,0,0,1,1.421,2.567,14.369,14.369,0,0,1,0,11.356,14.626,14.626,0,0,1-1.421,2.568,14.983,14.983,0,0,1-1.913,2.254c.219,1.225.437,1.3.62,1.3" transform="translate(-9.74 -11.7)" fill="#282847"/>
    <path id="Path_651" data-name="Path 651" d="M338.725,151.422v14a9.909,9.909,0,0,0,.816,3.937,10.13,10.13,0,0,0,.99,1.78,10.493,10.493,0,0,0,1.332,1.559,10.6,10.6,0,0,0,1.625,1.279,10.773,10.773,0,0,0,1.852.951,10.972,10.972,0,0,0,2.01.586,11.1,11.1,0,0,0,2.091.2h5.322a11.084,11.084,0,0,0,4.167-.722,10.864,10.864,0,0,0,1.89-.938,10.555,10.555,0,0,0,1.661-1.279,10.376,10.376,0,0,0,1.364-1.568,10.135,10.135,0,0,0,1.015-1.8,9.993,9.993,0,0,0,.626-1.954,9.888,9.888,0,0,0,.212-2.034v-14.21a49.452,49.452,0,0,1-26.973.035Zm-1.495,14s0-14.385,1.02-15.82a67.4,67.4,0,0,0,28.868,1.435v14.385a11.305,11.305,0,0,1-.911,4.552,11.491,11.491,0,0,1-1.138,2.057,11.8,11.8,0,0,1-1.539,1.8,12.128,12.128,0,0,1-1.879,1.473,12.313,12.313,0,0,1-2.146,1.086,12.568,12.568,0,0,1-2.327.659,12.7,12.7,0,0,1-2.416.2h-5.467a12.7,12.7,0,0,1-4.648-.952,12.337,12.337,0,0,1-2.092-1.1,12.17,12.17,0,0,1-1.829-1.474,11.9,11.9,0,0,1-1.5-1.787,11.553,11.553,0,0,1-1.107-2.031,11.411,11.411,0,0,1-.675-2.2,11.223,11.223,0,0,1-.219-2.283" transform="translate(-16.587 -7.358)" fill="#282847"/>
    <path id="Path_652" data-name="Path 652" d="M304.86,103.356a42.168,42.168,0,0,0,1.963,12.71,42.488,42.488,0,0,0,1.507,4.046A43.12,43.12,0,0,0,310.243,124q1.057,1.9,2.3,3.685t2.665,3.451q1.42,1.663,3,3.184t3.316,2.885q1.731,1.365,3.594,2.56t3.838,2.21q1.975,1.013,4.045,1.837t4.213,1.447q2.144.625,4.34,1.044t4.427.63q2.229.211,4.469.211t4.47-.211q2.229-.21,4.426-.63t4.34-1.044q2.144-.625,4.213-1.447t4.046-1.837q1.975-1.014,3.837-2.21t3.594-2.56q1.733-1.363,3.316-2.885t3-3.184q1.421-1.663,2.666-3.451t2.3-3.685a42.877,42.877,0,0,0,3.421-7.93,42.173,42.173,0,0,0,0-25.42,42.877,42.877,0,0,0-3.421-7.93q-1.055-1.9-2.3-3.686T385.7,75.579q-1.42-1.663-3-3.183t-3.316-2.886q-1.73-1.365-3.594-2.56t-3.837-2.21q-1.975-1.014-4.046-1.837t-4.213-1.447q-2.144-.625-4.34-1.044t-4.426-.63q-2.231-.211-4.47-.211t-4.475.195q-2.232.2-4.433.617T337.2,61.416q-2.148.62-4.222,1.44t-4.052,1.832q-1.98,1.011-3.846,2.207t-3.6,2.56q-1.734,1.365-3.32,2.888t-3.007,3.188q-1.422,1.666-2.666,3.457a43.059,43.059,0,0,0-4.206,7.584A42.312,42.312,0,0,0,305.7,94.8a41.893,41.893,0,0,0-.845,8.554M336.1,146.44q-1.4-.429-2.781-.94t-2.715-1.106q-1.341-.592-2.638-1.265t-2.551-1.421q-1.252-.747-2.454-1.57t-2.348-1.713q-1.147-.891-2.233-1.85t-2.108-1.98q-1.023-1.023-1.976-2.1t-1.835-2.216q-.883-1.135-1.689-2.321t-1.536-2.418q-.727-1.232-1.375-2.5t-1.21-2.582q-.563-1.309-1.04-2.649t-.868-2.707q-.389-1.366-.69-2.753t-.51-2.789q-.211-1.4-.329-2.814t-.146-2.828q-.027-1.416.038-2.832t.221-2.823q.155-1.409.4-2.8t.585-2.775q.337-1.379.763-2.735t.938-2.684q.513-1.329,1.111-2.623t1.279-2.552q.68-1.256,1.441-2.47t1.6-2.379q.839-1.167,1.75-2.279t1.894-2.171q.981-1.057,2.031-2.053t2.159-1.928q1.111-.931,2.281-1.8t2.392-1.655q1.222-.792,2.495-1.51t2.587-1.357q1.318-.64,2.672-1.2t2.743-1.038q1.389-.479,2.806-.873t2.856-.7q1.439-.309,2.9-.532t2.926-.358q1.468-.135,2.942-.182t2.949-.006q1.475.041,2.943.17t2.928.346q1.456.217,2.9.52t2.859.692q1.419.389,2.809.861t2.749,1.028q1.356.555,2.676,1.19t2.593,1.347q1.275.712,2.5,1.5t2.4,1.646q1.174.86,2.289,1.787t2.168,1.92q1.053.991,2.039,2.045t1.9,2.163q.916,1.11,1.759,2.272t1.609,2.373q.764,1.211,1.451,2.465t1.289,2.547q.6,1.292,1.122,2.619t.95,2.68q.431,1.355.774,2.733t.6,2.774q.252,1.395.415,2.8t.233,2.823q.07,1.415.049,2.831t-.135,2.829q-.111,1.413-.317,2.815t-.5,2.791q-.294,1.388-.678,2.755t-.856,2.71q-.472,1.342-1.03,2.654t-1.2,2.586q-.642,1.275-1.365,2.51t-1.524,2.424q-.8,1.189-1.679,2.328t-1.827,2.223q-.948,1.084-1.966,2.11t-2.1,1.988q-1.081.963-2.224,1.859t-2.341,1.722q-1.2.827-2.447,1.58t-2.545,1.43q-1.3.676-2.633,1.275t-2.71,1.115q-1.373.518-2.778.951t-2.833.784q-1.429.349-2.879.612t-2.912.44q-1.465.177-2.936.265t-2.948.088A49.373,49.373,0,0,1,336.1,146.44" transform="translate(-14.906 -2.832)" fill="#282847"/>
    <path id="Path_653" data-name="Path 653" d="M333.892,101.406a7.865,7.865,0,0,0-1.41,2.661,7.677,7.677,0,0,0-.3,2.973,6.253,6.253,0,0,0,.46,2.9,6.485,6.485,0,0,0,1.727,2.42,7.42,7.42,0,0,0,2.676-2.128,7.051,7.051,0,0,0,1.406-3.052,6.373,6.373,0,0,0-.692-3.5,4.131,4.131,0,0,0-1.2-1.529,4.346,4.346,0,0,0-1.787-.851,1.527,1.527,0,0,0-.876-.035Zm35.612-.736c-1.058.491-1.568,2.346-2.041,3.92a19.364,19.364,0,0,0-.729,5.25,17.312,17.312,0,0,0,1.932,8.085,12.754,12.754,0,0,0,2.7-2.484,11.414,11.414,0,0,0,2.078-4.1,11.133,11.133,0,0,0,.29-4.549,8.7,8.7,0,0,0-1.15-3.493,9.09,9.09,0,0,0-2.495-2.772,1.31,1.31,0,0,0-.583.14m.583,21.315a11.514,11.514,0,0,1-1.932-2.065,39.941,39.941,0,0,1-26.462,1.19,17.555,17.555,0,0,1-4.911-2.591,16.907,16.907,0,0,1-3.8-3.954,26.522,26.522,0,0,1-16.184.666,44.015,44.015,0,0,0,15.456-1.925,13.368,13.368,0,0,1-1.568-6.265c0-.841,0-5.215,2.333-6.79a3.2,3.2,0,0,1,1.391-.529,3.251,3.251,0,0,1,1.488.144,5.4,5.4,0,0,1,3.208,3.045,7.729,7.729,0,0,1,.838,4.445,9.023,9.023,0,0,1-1.955,3.955,9.521,9.521,0,0,1-3.622,2.659,15.7,15.7,0,0,0,7.837,5.81,30.912,30.912,0,0,0,9.7,1.61,31.241,31.241,0,0,0,15.491-2.695,18.985,18.985,0,0,1-2.151-8.82,20.136,20.136,0,0,1,.911-6.021c.4-1.47,1.057-3.71,2.735-4.479a2.674,2.674,0,0,1,2.551,0c2.479,1.294,3.645,5.984,3.645,7.175a12.309,12.309,0,0,1-.311,5.1,12.587,12.587,0,0,1-2.35,4.59,13.71,13.71,0,0,1-3.1,2.835,9.445,9.445,0,0,0,1.6,1.749c2.625,2.2,6.6,2.31,8.019,3.5a13.726,13.726,0,0,1-4.646-.415,13.449,13.449,0,0,1-4.211-1.93" transform="translate(-15.582 -4.872)" fill="#282847"/>
    <path id="Path_654" data-name="Path 654" d="M378.634,50.3C379.326,49.809,398.79,0,398.79,0c-1.385-.525-20.849,49.314-20.849,49.314.364.945.437.98.692.98" transform="translate(-18.589 0)" fill="#282847"/>
    <path id="Path_655" data-name="Path 655" d="M409.846,170.509c.511-1.226-14.58-15.68-14.58-15.68-1.057.98,13.851,15.435,13.851,15.435a.733.733,0,0,0,.729.245" transform="translate(-19.438 -7.615)" fill="#282847"/>
    <path id="Path_656" data-name="Path 656" d="M281.928,181.509c.473-.175,31.893-25.725,31.893-25.725-.948-1.085-32.367,24.5-32.367,24.5.072,1.154.255,1.225.474,1.225" transform="translate(-13.843 -7.661)" fill="#282847"/>
    <path id="Path_657" data-name="Path 657" d="M293.606,83.6c.364-1.33-34.809-20.72-34.809-20.72-.765,1.261,34.444,20.616,34.444,20.616a.625.625,0,0,0,.365.1" transform="translate(-12.728 -3.093)" fill="#282847"/>
    <path id="Path_658" data-name="Path 658" d="M425.378,119.048h23.983c0-1.434-23.983-1.434-23.983-1.434-.692,1.12-.437,1.434,0,1.434" transform="translate(-20.901 -5.785)" fill="#282847"/>
    <path id="Path_659" data-name="Path 659" d="M196.954,287.425c.729-.6,6.16-27.685,6.16-27.685-.22-.63-11.154-11.235-11.154-11.235-1.2,0-15.381,23.9-15.381,23.9L162.291,248.4c-1.167,0-11.482,9.9-11.482,9.9-.219.6,4.811,28.42,4.811,28.42,1.459-.245-3.645-27.685-3.645-27.685l9.367-9.135,14.58,24.29c1.275,0,15.636-24.01,15.636-24.01l9.987,9.66-5.395,26.7c.729.84.765.875.8.875" transform="translate(-7.417 -12.218)" fill="#282847"/>
    <path id="Path_660" data-name="Path 660" d="M168.142,288.62c.62-.315,9.258-12.25,9.258-12.25l8.638,12.04c1.2-.8-8.019-13.58-8.019-13.58-1.239,0-10.5,12.775-10.5,12.775.292.979.474,1.015.62,1.015" transform="translate(-8.24 -13.517)" fill="#282847"/>
    <path id="Path_661" data-name="Path 661" d="M188.853,216.559c-.583,0-.984,0-1.13,2.2s.4,2.7.948,2.66,1.056-.7,1.056-2.346-.072-2.415-.875-2.52" transform="translate(-9.232 -10.651)" fill="#282847"/>
    <path id="Path_662" data-name="Path 662" d="M168.611,216.559c-.584,0-.984,0-1.167,2.2s.437,2.7.984,2.66,1.057-.7,1.021-2.346-.073-2.415-.839-2.52" transform="translate(-8.234 -10.651)" fill="#282847"/>
    <path id="Path_663" data-name="Path 663" d="M204,231.471a8.943,8.943,0,0,0,3.47-.75,8.662,8.662,0,0,0,2.872-2.015,7.821,7.821,0,0,0,1.681-2.733,7.585,7.585,0,0,0,.433-3.147,7.794,7.794,0,0,0-.266-1.577,7.879,7.879,0,0,0-.582-1.5,8.022,8.022,0,0,0-.875-1.361,8.285,8.285,0,0,0-1.133-1.169,8.448,8.448,0,0,0-1.35-.935,8.625,8.625,0,0,0-1.514-.665,8.741,8.741,0,0,0-1.619-.368,8.851,8.851,0,0,0-1.664-.058,7.872,7.872,0,0,0-2.587.56,2.807,2.807,0,0,0,1.231.766,2.912,2.912,0,0,0,1.465.074,7.226,7.226,0,0,1,5.067,1.679,6.7,6.7,0,0,1,1.644,2.088,6.453,6.453,0,0,1,.688,2.533,6.2,6.2,0,0,1-.336,2.6,6.4,6.4,0,0,1-1.377,2.263,6.807,6.807,0,0,1-2.166,1.606,7.045,7.045,0,0,1-2.645.669,7.2,7.2,0,0,1-3.645-.735,2.711,2.711,0,0,0,.42.944,2.819,2.819,0,0,0,.746.736,2.955,2.955,0,0,0,.973.428,3.011,3.011,0,0,0,1.068.062" transform="translate(-9.876 -10.584)" fill="#282847"/>
    <path id="Path_664" data-name="Path 664" d="M205.87,228.021c.437-1.26-4.01-4.585-4.01-4.585l4.994-3.5c-.911-1.12-6.67,2.975-6.67,2.975,0,1.12,5.212,5.005,5.212,5.005a.729.729,0,0,0,.473.1" transform="translate(-9.846 -10.808)" fill="#282847"/>
    <path id="Path_665" data-name="Path 665" d="M151.133,231.471a8.768,8.768,0,0,0,3.936-.91,11.244,11.244,0,0,0-4.375-.525,7.04,7.04,0,0,1-2.645-.669,6.808,6.808,0,0,1-2.166-1.606,6.6,6.6,0,0,1-1.712-4.864,6.516,6.516,0,0,1,.662-2.438,6.657,6.657,0,0,1,.673-1.088,6.851,6.851,0,0,1,.872-.948,7,7,0,0,1,1.042-.775,7.136,7.136,0,0,1,1.173-.575,7.232,7.232,0,0,1,1.265-.355,7.3,7.3,0,0,1,1.311-.122,8.633,8.633,0,0,1,2.734.525,2.035,2.035,0,0,0-2.223-1.925,8.753,8.753,0,0,0-2.5.17,8.588,8.588,0,0,0-2.337.865,8.305,8.305,0,0,0-1.971,1.484,8.07,8.07,0,0,0-1.432,1.975,7.857,7.857,0,0,0-.766,2.29,7.755,7.755,0,0,0-.033,2.4,7.85,7.85,0,0,0,.7,2.31,8.049,8.049,0,0,0,1.376,2.011,8.275,8.275,0,0,0,2.63,1.928,8.571,8.571,0,0,0,3.2.8Z" transform="translate(-7.012 -10.583)" fill="#282847"/>
    <path id="Path_666" data-name="Path 666" d="M149.787,227.971c.437,0,5.65-4.025,5.65-4.025,0-1.12-5.759-5.215-5.759-5.215-.875,1.12,4.083,4.655,4.083,4.655l-4.447,3.5c.036,1.015.255,1.085.473,1.085" transform="translate(-7.344 -10.758)" fill="#282847"/>
    <path id="Path_667" data-name="Path 667" d="M175.316,250.086h2.807a20.905,20.905,0,0,0,7.068-.988,20.376,20.376,0,0,0,6.272-3.282,21.744,21.744,0,0,0,4.554-5.95,21,21,0,0,0,2.225-7.069,179.319,179.319,0,0,0,.876-21.28c-1.422,4.585-1.641,17.22-2.369,21a19.6,19.6,0,0,1-1.932,6.682,20.275,20.275,0,0,1-4.155,5.673,18.945,18.945,0,0,1-5.832,3.023,19.413,19.413,0,0,1-6.561.9h-2.952a19.27,19.27,0,0,1-6.544-.895,18.81,18.81,0,0,1-5.812-3.026,20.087,20.087,0,0,1-4.185-5.664,19.429,19.429,0,0,1-1.939-6.691,131.654,131.654,0,0,1-.765-17.92,46.089,46.089,0,0,0-.692,18.165,20.8,20.8,0,0,0,2.1,7.15,21.472,21.472,0,0,0,4.5,6.044,20.442,20.442,0,0,0,6.289,3.2,20.956,20.956,0,0,0,7.052.927" transform="translate(-7.613 -10.403)" fill="#282847"/>
    <path id="Path_668" data-name="Path 668" d="M193.475,249.641c.765-.735.729-3.045.729-3.045-1.495,0-1.459,2.346-1.459,2.346a.659.659,0,0,0,.214.494.716.716,0,0,0,.515.205" transform="translate(-9.48 -12.129)" fill="#282847"/>
    <path id="Path_669" data-name="Path 669" d="M162.269,249.362c.729-.735.656-2.765.656-2.765-1.495,0-1.421,2.1-1.421,2.1a.7.7,0,0,0,.248.475.759.759,0,0,0,.517.19" transform="translate(-7.943 -12.129)" fill="#282847"/>
    <path id="Path_670" data-name="Path 670" d="M152.036,214.929a47.139,47.139,0,0,1,2.406-21.98c3.645-10.01,18.954-12.215,28.686-10.5a19.832,19.832,0,0,1,6.4,2.51,19.113,19.113,0,0,1,5.086,4.49,11.2,11.2,0,0,1,3.973,1.961,13.724,13.724,0,0,1,2.949,4.889,13.343,13.343,0,0,1,.7,5.611,50.054,50.054,0,0,1-1.713,12.18c1.531,0,3.208-5.915,3.208-12.18a14.5,14.5,0,0,0-.79-6.209,14.929,14.929,0,0,0-3.329-5.377,9.2,9.2,0,0,0-3.9-1.889,19.889,19.889,0,0,0-5.434-4.779,20.647,20.647,0,0,0-6.85-2.606c-10.242-1.715-26.389.7-30.362,11.514a40.422,40.422,0,0,0-1.712,21.84.659.659,0,0,0,.692.525" transform="translate(-7.406 -8.88)" fill="#282847"/>
    <path id="Path_671" data-name="Path 671" d="M109.446,471.012c.765-1.155.765-44.905,1.968-60.094-2.7,15.12-2.7,58.939-2.7,59.5a.668.668,0,0,0,.248.429.724.724,0,0,0,.48.166" transform="translate(-5.347 -20.211)" fill="#282847"/>
    <path id="Path_672" data-name="Path 672" d="M251.857,471.005c.728-1.155.728-44.975-.474-60.235-.291,15.33-.291,59.08-.291,59.5a.654.654,0,0,0,.213.531.714.714,0,0,0,.552.2" transform="translate(-12.35 -20.204)" fill="#282847"/>
    <path id="Path_673" data-name="Path 673" d="M193.868,213.975a6.4,6.4,0,0,0-.457-1.278,6.572,6.572,0,0,0-.718-1.162,6.673,6.673,0,0,0-.949-1,6.839,6.839,0,0,0-1.141-.792,6.978,6.978,0,0,0-1.284-.552,7.158,7.158,0,0,0-4.163-.048c2.771.875,7.035,1.75,8.019,4.375a.708.708,0,0,0,.692.455" transform="translate(-9.107 -10.273)" fill="#282847"/>
    <path id="Path_674" data-name="Path 674" d="M162.886,214a7.77,7.77,0,0,1,1.571-1.77A8.034,8.034,0,0,1,166.508,211a8.312,8.312,0,0,1,4.762-.491,6.237,6.237,0,0,0-2.479-.972,6.323,6.323,0,0,0-2.674.144,6.234,6.234,0,0,0-1.247.491,6.011,6.011,0,0,0-1.1.742,5.872,5.872,0,0,0-.907.957,5.733,5.733,0,0,0-.666,1.124c.51,1.015.583,1.015.692,1.015" transform="translate(-7.977 -10.302)" fill="#282847"/>
    <path id="Path_675" data-name="Path 675" d="M106.9,404.345c11.226,0,23.619-6.72,30.654-23.2-9.623,18.865-25.515,24.185-37.579,21-26.026-7-18.881-38.849-16.512-49.28l1.859-8.26c2.7-12.04,5.467-24.5,8.747-36.61,7.29-27.44,28.066-45.71,53.8-47.775-26.5.666-47.64,19.39-55.221,47.39-3.316,12.146-6.086,24.5-8.784,36.715l-1.859,8.225C79.567,363.291,72.2,395.98,99.541,403.5a28.138,28.138,0,0,0,7.362.84" transform="translate(-3.898 -12.799)" fill="#282847"/>
    <path id="Path_676" data-name="Path 676" d="M155.064,337.558h2.588a14.32,14.32,0,0,0,5.2-.852,13.925,13.925,0,0,0,4.5-2.648,6.1,6.1,0,0,0,1.236-2.218,5.937,5.937,0,0,0,.222-2.506,6.733,6.733,0,0,0-.626-2.065,6.936,6.936,0,0,0-1.248-1.786,7.217,7.217,0,0,0-1.754-1.337,7.414,7.414,0,0,0-2.094-.763c0,1.435,3.863,2.275,4.227,6.09a4.391,4.391,0,0,1-1.092,3.5,12.484,12.484,0,0,1-4.03,2.341,12.809,12.809,0,0,1-4.646.739,132.832,132.832,0,0,1-20.267-1.47c.256,1.47,10.571,2.975,17.788,2.975" transform="translate(-6.752 -15.905)" fill="#282847"/>
    <path id="Path_677" data-name="Path 677" d="M147.94,326.9a28.482,28.482,0,0,0,8.071-.636,28.043,28.043,0,0,0,7.529-2.864,4.978,4.978,0,0,0,1.589-1.5,4.756,4.756,0,0,0,.781-2,6.656,6.656,0,0,0-.262-3.011,6.864,6.864,0,0,0-1.56-2.624c-2.442-2.589-7.289-3.884-14.58-3.884a37.584,37.584,0,0,1-15.527-3.115,23.181,23.181,0,0,0,7.142,3.566,23.726,23.726,0,0,0,7.985.984c7.29,0,11.7,1.155,13.85,3.5a5.406,5.406,0,0,1,1.265,2.117,5.24,5.24,0,0,1,.193,2.433,3.76,3.76,0,0,1-1.786,2.59c-3.863,2.765-14.069,4.34-26.134,2.03A21.48,21.48,0,0,0,147.94,326.9" transform="translate(-6.59 -15.113)" fill="#282847"/>
    <path id="Path_678" data-name="Path 678" d="M155.344,214.569A70.131,70.131,0,0,1,171.5,203.946a71.929,71.929,0,0,1,18.581-5.931,37.226,37.226,0,0,0,7.8,13.055,77.406,77.406,0,0,1-6.6-14.28c-.984-.454-20.192,1.75-36.449,16.345.108,1.225.291,1.435.51,1.435" transform="translate(-7.615 -9.676)" fill="#282847"/>
    <path id="Path_679" data-name="Path 679" d="M177.588,233.275a9.145,9.145,0,0,0,3.511-.783,8.828,8.828,0,0,0,2.9-2.053,2.149,2.149,0,0,0,.511-2.17,17.732,17.732,0,0,0-1.531-2.73,24.864,24.864,0,0,1-4.484-12.11,17.065,17.065,0,0,0,.33,6.716,17.466,17.466,0,0,0,2.877,6.129,13.373,13.373,0,0,1,1.385,2.484,6.508,6.508,0,0,1-2.493,2.279,6.842,6.842,0,0,1-3.338.8c.036,1.435.182,1.435.328,1.435" transform="translate(-8.718 -10.498)" fill="#282847"/>
    <path id="Path_680" data-name="Path 680" d="M46.039,474.047H544.545c0-1.435-498.306-1.435-498.306-1.435-.624,1.12-.4,1.435-.2,1.435" transform="translate(-2.254 -23.245)" fill="#282847"/>
    <path id="Path_681" data-name="Path 681" d="M393.918,308.91a13.122,13.122,0,0,0-5.441,1.754,12.517,12.517,0,0,0-4.109,3.846A14.075,14.075,0,0,0,384.112,327c3.645,8.575.437,12.39.292,12.565a17.682,17.682,0,0,0-2.482,3.956,17.277,17.277,0,0,0-1.341,4.436,17.179,17.179,0,0,0,1.015,9.107c1.932,3.816,5.942,5.81,12.138,5.81a17.347,17.347,0,0,0,7.873-1.511,16.8,16.8,0,0,0,3.424-2.065,16.31,16.31,0,0,0,2.809-2.794,21.3,21.3,0,0,0,2-4.161,20.918,20.918,0,0,0,.147-13.549c-2.369-6.265-2.005-8.539-.911-15.574a12.724,12.724,0,0,0-.744-5.866,13.144,13.144,0,0,0-3.3-4.985,12.368,12.368,0,0,0-4.046-2.595,12.751,12.751,0,0,0-4.774-.9,20.568,20.568,0,0,0-2.3.034Zm-13.633,48.755a18.348,18.348,0,0,1,.274-14.6,18.846,18.846,0,0,1,2.678-4.265s2.661-3.5-.473-11.129a15.348,15.348,0,0,1-1.134-3.37,15.22,15.22,0,0,1,.168-7.035,15.37,15.37,0,0,1,1.294-3.316,14.86,14.86,0,0,1,2.107-2.437,15.407,15.407,0,0,1,1.247-1.041,15.519,15.519,0,0,1,2.8-1.668,15.552,15.552,0,0,1,1.526-.608,15.963,15.963,0,0,1,8.142-.55,15.6,15.6,0,0,1,1.6.4,15.771,15.771,0,0,1,1.546.559,15.521,15.521,0,0,1,2.858,1.579,15.243,15.243,0,0,1,1.281,1,15.081,15.081,0,0,1,2.266,2.772,14.692,14.692,0,0,1,1.533,3.2,14.477,14.477,0,0,1,.575,6.977,20.821,20.821,0,0,0,.984,14,22.173,22.173,0,0,1-.182,14.549,22.575,22.575,0,0,1-2.188,4.456,17.765,17.765,0,0,1-3.178,3.173,18.267,18.267,0,0,1-3.9,2.311,18.645,18.645,0,0,1-4.379,1.3,18.883,18.883,0,0,1-4.579.213,13.364,13.364,0,0,1-3.84-.126,13.2,13.2,0,0,1-3.632-1.208,12.813,12.813,0,0,1-3.1-2.18,12.352,12.352,0,0,1-2.294-2.961" transform="translate(-18.636 -15.117)" fill="#282847"/>
    <path id="Path_682" data-name="Path 682" d="M407.052,288.044c-2.478,0-4.337,3.5-4.119,7.279s2.369,6.791,4.921,6.791a3.674,3.674,0,0,0,1.792-.659,3.461,3.461,0,0,0,1.2-1.441,8.444,8.444,0,0,0,1.13-5.18c-.183-3.71-2.369-6.79-4.775-6.79Zm-5.613,7.35c-.292-4.725,2.15-8.575,5.759-8.785s6.014,3.5,6.269,8.155a10.105,10.105,0,0,1-1.312,5.949,5.129,5.129,0,0,1-1.829,1.987,5.415,5.415,0,0,1-2.618.848c-3.207,0-6.05-3.605-6.269-8.155" transform="translate(-19.744 -14.096)" fill="#282847"/>
    <path id="Path_683" data-name="Path 683" d="M377.214,418.7c.728-.7.728-42.349.728-42.349-1.458,0-1.458,41.65-1.458,41.65a.662.662,0,0,0,.214.5.719.719,0,0,0,.515.2" transform="translate(-18.517 -18.511)" fill="#282847"/>
    <path id="Path_684" data-name="Path 684" d="M418.766,384.192a31.239,31.239,0,0,0,.729-7.839c-1.495,0-1.495,7-1.495,7a.721.721,0,0,0,.195.578.787.787,0,0,0,.57.262" transform="translate(-20.559 -18.511)" fill="#282847"/>
    <path id="Path_685" data-name="Path 685" d="M418.766,387.4c.729-.735.729-3.5.729-3.5-1.495,0-1.495,2.835-1.495,2.835a.738.738,0,0,0,.257.466.794.794,0,0,0,.509.2" transform="translate(-20.559 -18.882)" fill="#282847"/>
    <path id="Path_686" data-name="Path 686" d="M396.969,374.033c-11.846,0-18.589,1.575-19.027,2.38.437.875,7.29,2.485,19.027,2.485s18.224-1.54,18.99-2.45c-.692-.91-7.4-2.415-18.99-2.415m-20.484,2.415c0-3.815,19.646-3.85,20.484-3.85s20.484,0,20.484,3.85-19.646,3.885-20.484,3.885-20.484-.07-20.484-3.885" transform="translate(-18.517 -18.326)" fill="#282847"/>
    <path id="Path_687" data-name="Path 687" d="M397.041,424a92.9,92.9,0,0,0,13.3-.875,49.775,49.775,0,0,0-13.3-.56c-11.846,0-18.588-1.576-19.027-2.485-1.458,3.885,18.189,3.92,19.027,3.92" transform="translate(-18.589 -20.662)" fill="#282847"/>
    <path id="Path_688" data-name="Path 688" d="M394.964,397.856c-.984-4.76-.729-8.575,2.406-9.7a9.844,9.844,0,0,1,4.082,0,74.513,74.513,0,0,0,10.425.316,22.6,22.6,0,0,0,6.6-.876,17.434,17.434,0,0,0-6.2-.559,77.593,77.593,0,0,1-10.461-.28,11.236,11.236,0,0,0-4.958.21,7.483,7.483,0,0,0-2.134,1.587,7.17,7.17,0,0,0-1.42,2.2,7.01,7.01,0,0,0-.091,5.1,2.7,2.7,0,0,0,1.6,2.1Z" transform="translate(-19.319 -19.014)" fill="#282847"/>
    <path id="Path_689" data-name="Path 689" d="M406.385,410.627H411.2a89.506,89.506,0,0,0,9.258-.84,24.22,24.22,0,0,0-9.33-.56,59.71,59.71,0,0,1-12.612-.455,7.19,7.19,0,0,1-4.884-2.03,6.583,6.583,0,0,1-1.285-2.831,6.432,6.432,0,0,1,.155-3.084,3.4,3.4,0,0,1,1.531-2.03c3.207.6,4.847.91,6.889,1.155a65.285,65.285,0,0,0,18.224-.56c-6.925-.385-12.429-.21-18.006-.875a22.606,22.606,0,0,1-4.811-.98,3.14,3.14,0,0,0-2.953,0,4.726,4.726,0,0,0-2.223,2.87,7.7,7.7,0,0,0-.2,3.764,7.85,7.85,0,0,0,1.588,3.446,8.262,8.262,0,0,0,2.6,1.817,8.546,8.546,0,0,0,3.122.738,50.84,50.84,0,0,0,8.129.455" transform="translate(-19.222 -19.535)" fill="#282847"/>
    <path id="Path_690" data-name="Path 690" d="M411.75,422.41a35.14,35.14,0,0,0,17.131-3.92,53.037,53.037,0,0,1-30.508.805,5.685,5.685,0,0,1-1.935-.722,5.476,5.476,0,0,1-1.531-1.347,5.272,5.272,0,0,1-.915-1.789,5.124,5.124,0,0,1-.175-1.987c.182-1.785,1.166-3.184,2.3-3.29-2.005-1.3-3.645.63-3.645,3.15a6.443,6.443,0,0,0,.2,2.48,6.576,6.576,0,0,0,1.12,2.241,6.859,6.859,0,0,0,1.89,1.7,7.164,7.164,0,0,0,2.4.929,58.607,58.607,0,0,0,13.668,1.75" transform="translate(-19.301 -20.153)" fill="#282847"/>
    <path id="Path_691" data-name="Path 691" d="M357.552,259.823a78.228,78.228,0,0,0,.292-14.35l3.644-10.955a5.074,5.074,0,0,1,.584-1.61,14.947,14.947,0,0,0,.729-11.235,9.879,9.879,0,0,0-4.375-4.1,40.788,40.788,0,0,0-7.289-3.5,17.347,17.347,0,0,0-3.645-.945,6.347,6.347,0,0,0-2.3.108,6.2,6.2,0,0,0-2.092.915,5.951,5.951,0,0,0-1.594,1.59,5.7,5.7,0,0,0-.871,2.042,6.887,6.887,0,0,0,.264,2.876,7.082,7.082,0,0,0,1.412,2.548,23.332,23.332,0,0,0,6.868,5.451,24.2,24.2,0,0,0,8.477,2.634c-3.062-1.714-6.3-2.834-9.149-4.689a21.514,21.514,0,0,1-5.03-4.235,5.662,5.662,0,0,1-1.136-2.038,5.509,5.509,0,0,1-.212-2.3,4.262,4.262,0,0,1,.662-1.561,4.451,4.451,0,0,1,1.225-1.208,4.639,4.639,0,0,1,1.607-.68,4.739,4.739,0,0,1,1.755-.049,13.968,13.968,0,0,1,3.39.84,40.419,40.419,0,0,1,6.962,3.29,8.888,8.888,0,0,1,3.863,3.5,13.823,13.823,0,0,1-.838,10.15,4.787,4.787,0,0,1-.584,1.61l-3.645,11.1c0,.385.51,10.99.437,14Z" transform="translate(-16.752 -10.48)" fill="#282847"/>
    <path id="Path_692" data-name="Path 692" d="M324.849,260.561a43.529,43.529,0,0,0,0-9.8,160.979,160.979,0,0,1-2.879-16.274,64.347,64.347,0,0,0,1.421,16.484l.8,8.925a.7.7,0,0,0,.207.442.752.752,0,0,0,.449.223" transform="translate(-15.833 -11.533)" fill="#282847"/>
    <path id="Path_693" data-name="Path 693" d="M321.251,214.152a5.486,5.486,0,0,0-1.786,3.29,37.582,37.582,0,0,0,.547,12.46,6.75,6.75,0,0,0,1.312,3.044,5.048,5.048,0,0,0,1.54.976,5.294,5.294,0,0,0,3.626.131,5.112,5.112,0,0,0,1.613-.861,6.391,6.391,0,0,0,2.26-4.235,27.941,27.941,0,0,0-1.057-10.816,7.532,7.532,0,0,0-3.28-4.55,4.5,4.5,0,0,0-1.932-.419,4.235,4.235,0,0,0-2.843.979m-1.02,19.775a5.917,5.917,0,0,1-.948-1.33,9.048,9.048,0,0,1-.728-2.52,37.237,37.237,0,0,1-.548-12.915,6.979,6.979,0,0,1,2.26-4.1,5.969,5.969,0,0,1,1.448-.858,6.2,6.2,0,0,1,4.967.087,9.456,9.456,0,0,1,2.546,2.352,9.074,9.074,0,0,1,1.5,3.073,28.206,28.206,0,0,1,.911,4.06,23.581,23.581,0,0,1,.292,7.525,7.948,7.948,0,0,1-2.734,5.075,6.539,6.539,0,0,1-4.264,1.435,6.386,6.386,0,0,1-2.561-.463,6.172,6.172,0,0,1-2.14-1.427" transform="translate(-15.625 -10.414)" fill="#282847"/>
    <path id="Path_694" data-name="Path 694" d="M356.4,216.536a55.4,55.4,0,0,0-2.187-20.615,8.189,8.189,0,0,0-1.968-3.5,4.7,4.7,0,0,0-.773-.562,4.759,4.759,0,0,0-.875-.4,4.947,4.947,0,0,0-3.77.228,4.768,4.768,0,0,0-.815.5,4.689,4.689,0,0,0-.693.651c-3.644,3.219-3.171,7.419-2.734,11.514.365,3.5.656,6.021.875,8.611a14.018,14.018,0,0,0,.62-8.12c-.511-4.726-.912-8.4,2.151-11.13,1.312-1.155,3.353-1.995,4.883-.491a7.034,7.034,0,0,1,1.6,3.116,75.142,75.142,0,0,1,2.879,19.495.658.658,0,0,0,.239.521.718.718,0,0,0,.564.179" transform="translate(-16.835 -9.404)" fill="#282847"/>
    <path id="Path_695" data-name="Path 695" d="M339.868,233.745a6.406,6.406,0,0,0,3.1-.735,7.61,7.61,0,0,0,1.653-1.305,7.384,7.384,0,0,0,1.214-1.692,7.132,7.132,0,0,0,.778-4c-1.495,2.94-2.442,5.005-4.228,5.915a6.566,6.566,0,0,1-6.2-.525,6.74,6.74,0,0,1-2.624-4.27c-.256-1.26-.437-2.59-.62-3.885a5.93,5.93,0,0,0-.292-2.24,10.781,10.781,0,0,1,.256-6.125,5.56,5.56,0,0,1,1.108-1.586,5.764,5.764,0,0,1,1.6-1.136,5.958,5.958,0,0,1,1.9-.555,6.034,6.034,0,0,1,1.986.092,3.893,3.893,0,0,1,2.022,1.124,3.639,3.639,0,0,1,1,2.026c1.385-2.064,0-3.675-2.551-4.479a7.558,7.558,0,0,0-4.959.506,7.22,7.22,0,0,0-2.047,1.431,6.965,6.965,0,0,0-1.414,2.018,12.136,12.136,0,0,0-.4,7,15.331,15.331,0,0,0,.328,2.2,38.458,38.458,0,0,0,.656,4.026,7.783,7.783,0,0,0,1.1,2.874,8.111,8.111,0,0,0,2.141,2.271,8.881,8.881,0,0,0,4.483,1.05" transform="translate(-16.271 -10.337)" fill="#282847"/>
    <path id="Path_696" data-name="Path 696" d="M337.035,245.341a18.217,18.217,0,0,1,3.39-10.675c-1.312-.7-4.811,3.675-4.119,10.044a.673.673,0,0,0,.238.451.722.722,0,0,0,.492.18" transform="translate(-16.537 -11.538)" fill="#282847"/>
    <path id="Path_697" data-name="Path 697" d="M491.391,370.046c-1.676-27.825-15.746-71.68-15.892-72.1-1.276.84,12.721,44.554,15.163,71.434a.629.629,0,0,0,.216.484.683.683,0,0,0,.513.182" transform="translate(-23.383 -14.654)" fill="#282847"/>
    <path id="Path_698" data-name="Path 698" d="M422.847,383.085c.511,0,35.575-6.055,80.189-9.345a701.653,701.653,0,0,0-80.444,7.945c-.4,1.154-.073,1.4.255,1.4" transform="translate(-20.776 -18.382)" fill="#282847"/>
    <path id="Path_699" data-name="Path 699" d="M422.772,424.989c81.9-3.815,103.37-15.5,112.555-20.51,23.583-12.634,19.136-48.125-12.174-106.12-.4-.769-.875-1.68-1.348-2.659a68.271,68.271,0,0,0-9.128-15.016,70.313,70.313,0,0,0-12.742-12.354,56.837,56.837,0,0,0-16.331-7.5,57.988,57.988,0,0,0-17.968-2.124,69.6,69.6,0,0,1,17.478,3.251,53.058,53.058,0,0,1,28.433,19.652,66.836,66.836,0,0,1,8.909,14.721l1.384,2.7c30.836,57.19,35.539,92.014,13.924,103.6-10.242,5.565-31.528,17.115-112.992,21-.729,1.051-.4,1.365,0,1.365" transform="translate(-20.773 -12.722)" fill="#282847"/>
    <path id="Path_700" data-name="Path 700" d="M368.859,301.434c14.069-32.83,31.929-37.939,32.112-37.975a89.778,89.778,0,0,1,17.969-3.5c-.219-1.4-9.7-.7-18.407,2.03-.729,0-18.663,5.249-32.367,38.5.51.91.583.945.692.945" transform="translate(-18.108 -12.751)" fill="#282847"/>
    <path id="Path_701" data-name="Path 701" d="M458.5,250.316A204.375,204.375,0,0,0,458.174,229c-1.495,0-.4,20.616-.4,20.616a.661.661,0,0,0,.213.494.72.72,0,0,0,.516.205" transform="translate(-22.496 -11.263)" fill="#282847"/>
    <path id="Path_702" data-name="Path 702" d="M417.388,205.61c.765-.7.839-3.885.839-3.885-1.495,0-1.568,3.15-1.568,3.15Z" transform="translate(-20.493 -9.922)" fill="#282847"/>
    <path id="Path_703" data-name="Path 703" d="M461.039,229.693a10.06,10.06,0,0,0,2.7-.376,9.855,9.855,0,0,0,2.489-1.082,9.587,9.587,0,0,0,2.078-1.7,9.254,9.254,0,0,0,1.5-2.192,9.013,9.013,0,0,0,.151-7.663,9.247,9.247,0,0,0-1.416-2.244,9.51,9.51,0,0,0-1.347-1.29,9.722,9.722,0,0,0-1.584-1.014,10.038,10.038,0,0,0-3.625-1.054,10.112,10.112,0,0,0-3.769.354,9.964,9.964,0,0,0-1.759.7,9.769,9.769,0,0,0-1.585,1.013,39.207,39.207,0,0,1,6.963-.666,8.271,8.271,0,0,1,3.072.9,7.963,7.963,0,0,1,2.468,1.974,7.793,7.793,0,0,1,.86,1.184,7.654,7.654,0,0,1,.621,1.316,7.57,7.57,0,0,1,.26,4.276,7.67,7.67,0,0,1-.457,1.375,7.808,7.808,0,0,1-.711,1.273,7.927,7.927,0,0,1-.941,1.126,8.035,8.035,0,0,1-1.139.942,8.232,8.232,0,0,1-1.3.726,8.385,8.385,0,0,1-1.416.487,8.5,8.5,0,0,1-4.458-.1,8.3,8.3,0,0,1-2.653-1.334,4.428,4.428,0,0,0,.754,1.35A4.633,4.633,0,0,0,457.979,229a4.821,4.821,0,0,0,1.469.6,4.893,4.893,0,0,0,1.592.1" transform="translate(-22.373 -10.379)" fill="#282847"/>
    <path id="Path_704" data-name="Path 704" d="M428.467,251.042c.729-.735.729-4.445.729-4.445-1.459,0-1.459,3.71-1.459,3.71a.658.658,0,0,0,.2.517.715.715,0,0,0,.529.218" transform="translate(-21.038 -12.129)" fill="#282847"/>
    <path id="Path_705" data-name="Path 705" d="M465.423,213.294a14.084,14.084,0,0,0,3.289-3.632,13.572,13.572,0,0,0,1.814-4.488,20.654,20.654,0,0,0,.656-7,16.672,16.672,0,0,0-1.592-5.312,17.187,17.187,0,0,0-3.257-4.558,14.315,14.315,0,0,0-5.031-3.852,14.877,14.877,0,0,0-6.268-1.4,24.147,24.147,0,0,0-5.5.35,29.812,29.812,0,0,0-6.786-7.2,30.954,30.954,0,0,0-8.851-4.7,18.04,18.04,0,0,0-7.122-.565,17.84,17.84,0,0,0-6.765,2.211,16.034,16.034,0,0,0-5.11,3.988,15.317,15.317,0,0,0-3.055,5.6,16.005,16.005,0,0,0,1.348,10.675,3.485,3.485,0,0,0-2.114,1.68,10.925,10.925,0,0,0-.716,1.738,10.792,10.792,0,0,0,.316,7.339,10.951,10.951,0,0,0,.862,1.676,11.187,11.187,0,0,0,1.14,1.515,11.4,11.4,0,0,0,1.387,1.311,12.519,12.519,0,0,1-1.779-2.925,12.243,12.243,0,0,1,.066-9.92c.328-.491,1.02-1.295,1.822-.945.912-1.085-2.332-6.265-.875-11.83a13.665,13.665,0,0,1,2.706-5.067,14.344,14.344,0,0,1,4.584-3.613,16.335,16.335,0,0,1,6.2-2.026,16.512,16.512,0,0,1,6.524.521,22.882,22.882,0,0,1,4.286,1.913,22.429,22.429,0,0,1,3.777,2.729,21.771,21.771,0,0,1,3.1,3.427,21.316,21.316,0,0,1,2.288,3.972c.364.454.4.454,1.968,0a25.6,25.6,0,0,1,6.087-.56,13.367,13.367,0,0,1,5.673,1.278,12.843,12.843,0,0,1,4.533,3.517,15.8,15.8,0,0,1,3.026,4.181,15.31,15.31,0,0,1,1.494,4.884,20.083,20.083,0,0,1-.656,6.685,12.509,12.509,0,0,1-4.155,7.175c.291,1.225.51,1.225.692,1.225" transform="translate(-20.159 -8.401)" fill="#282847"/>
    <path id="Path_706" data-name="Path 706" d="M430.224,227.111c-1.6-1.435-4.411-1.75-5.176-2.52a5.925,5.925,0,0,1,.875-3.045,34.454,34.454,0,0,0,3.391-11.76c-2.078,5.39-3.645,8.89-4.739,11.2a9.433,9.433,0,0,0-1.131,3.185,1.81,1.81,0,0,0,.512,1.4c1.458,1.47,5.8,1.54,6.269,1.54" transform="translate(-20.827 -10.318)" fill="#282847"/>
    <path id="Path_707" data-name="Path 707" d="M440.7,227.342a2.559,2.559,0,0,0-1.75,1.82c-.692,2.1-1.057,2.521-1.968,3.01s-1.385.525-3.644,0c-1.021-.245-2.005,0-2.916,1.786a3.931,3.931,0,0,0,2.406,2.17,7.066,7.066,0,0,0,6.269-.21,7.1,7.1,0,0,0,2.444-2.147,6.746,6.746,0,0,0,1.2-2.963,2.9,2.9,0,0,0-.134-2.019,2.973,2.973,0,0,0-.583-.86,3.13,3.13,0,0,0-.85-.622Zm-8.529,10.01a5.283,5.283,0,0,1-2-1.235,5.012,5.012,0,0,1-1.242-1.95,2.641,2.641,0,0,1,.025-1.451,2.725,2.725,0,0,1,.778-1.244,4.114,4.114,0,0,1,1.885-.868,4.212,4.212,0,0,1,2.087.133c1.932.49,2.114.42,2.588.175s.62-.35,1.275-2.17A3.924,3.924,0,0,1,438.589,227a4.148,4.148,0,0,1,1.778-1.054,2.991,2.991,0,0,1,1.5.065,2.891,2.891,0,0,1,1.268.775,4.831,4.831,0,0,1,.943,1.984,4.737,4.737,0,0,1-.032,2.181,7.745,7.745,0,0,1-.342,1.415,7.914,7.914,0,0,1-.6,1.335,8.13,8.13,0,0,1-.837,1.209,8.271,8.271,0,0,1-1.049,1.048,8.493,8.493,0,0,1-1.226.852,8.647,8.647,0,0,1-1.364.628,8.753,8.753,0,0,1-1.46.385,8.884,8.884,0,0,1-1.507.128,7.983,7.983,0,0,1-3.5-.6" transform="translate(-21.092 -11.11)" fill="#282847"/>
    <path id="Path_708" data-name="Path 708" d="M439.022,237.763A7.223,7.223,0,0,1,439,235.12a7.348,7.348,0,0,1,.922-2.49,7.623,7.623,0,0,1,1.755-2.037,7.931,7.931,0,0,1,2.375-1.335,6.168,6.168,0,0,0-1.519.1,5.985,5.985,0,0,0-.737.189,5.848,5.848,0,0,0-.706.279,5.966,5.966,0,0,0-1.27.805,5.8,5.8,0,0,0-.543.514,5.567,5.567,0,0,0-.471.577,5.494,5.494,0,0,0-.388.63,5.323,5.323,0,0,0-.3.673,5.385,5.385,0,0,0-.208.7,5.438,5.438,0,0,0-.039,2.185,5.378,5.378,0,0,0,.182.711,5.443,5.443,0,0,0,.277.684.708.708,0,0,0,.692.454" transform="translate(-21.532 -11.275)" fill="#282847"/>
    <path id="Path_709" data-name="Path 709" d="M463.965,225.768c.328-1.33-5.723-4.235-5.723-4.235l5.614-5.495c-1.057-1.015-7.29,5.214-7.29,5.214.219,1.12,7.29,4.445,7.29,4.445a.552.552,0,0,0,.109.07" transform="translate(-22.456 -10.62)" fill="#282847"/>
    <path id="Path_710" data-name="Path 710" d="M446.872,190.526a34.193,34.193,0,0,0,3.208-5.075c-1.349-.665-3.864,4.026-3.864,4.026.4,1.015.547,1.05.656,1.05" transform="translate(-21.947 -9.118)" fill="#282847"/>
    <path id="Path_711" data-name="Path 711" d="M453.026,212.694c-.4-1.3-1.312-1.54-2.187-2.17-4.592-3.5-5.868-16.171-5.868-16.31-1.312-.42-14.58,8.54-30,5.145a35.81,35.81,0,0,0,21.987-.65,34.982,34.982,0,0,0,6.662-3.2c.437,3.5,2.041,12.985,6.342,16.135a4.907,4.907,0,0,0,3.062,1.05" transform="translate(-20.41 -9.552)" fill="#282847"/>
    <path id="Path_712" data-name="Path 712" d="M427.675,252.186l-4.957,7v28.8l10.934-14.385Zm29.414-.91-21.87,22.575,12.721,20.335,16.657-35Zm-9.7,44.835-13.122-21s-11.663,15.575-13.012,15.155v-31.5c0-.281,5.978-8.505,7.29-8.3l6.014,22.015s21.87-22.54,22.927-22.54a125.7,125.7,0,0,1,8.747,9.24s-17.532,36.785-18.224,37.205a.662.662,0,0,1-.62-.28" transform="translate(-20.72 -12.293)" fill="#282847"/>
    <path id="Path_713" data-name="Path 713" d="M422.22,371.577c.911-1.12,18.844-62.79,24.822-75.949-7.29,12.67-25.514,74.444-25.514,75.039.583.91.656.91.692.91" transform="translate(-20.733 -14.54)" fill="#282847"/>
    <path id="Path_714" data-name="Path 714" d="M422.148,378.732a31.424,31.424,0,0,0,.765-8.085c-.62-4.62-1.421-51.66-1.421-52.15a182.506,182.506,0,0,1,2.224-27.544c-1.495,0-3.317,9.484-3.645,27.544,0,1.961.8,47.635,1.422,52.22v7.316a.662.662,0,0,0,.187.472.714.714,0,0,0,.469.228" transform="translate(-20.661 -14.31)" fill="#282847"/>
    <path id="Path_715" data-name="Path 715" d="M435.914,298.242c.62-.316,7.29-9.31,7.29-9.31-1.2-.8-7.727,7.84-7.727,7.84l-7.29-.666-.839-9.94c-1.494,0-.583,10.5-.583,10.5a50.9,50.9,0,0,0,9.113,1.436Z" transform="translate(-20.977 -14.075)" fill="#282847"/>
    <path id="Path_716" data-name="Path 716" d="M421.151,309.656c.656-.385,6.67-12,6.67-12-1.312-.63-7.29,10.955-7.29,10.955.292,1.015.474,1.05.62,1.05" transform="translate(-20.684 -14.639)" fill="#282847"/>
    <path id="Path_717" data-name="Path 717" d="M434.484,214.158a14.816,14.816,0,0,0,1.495,7.49c1.02,1.89,2.333,2.94,3.827,2.975,2.953,0,5.614-4.62,5.8-10.15a14.985,14.985,0,0,0-1.494-7.491,4.647,4.647,0,0,0-1.422-1.941,4.916,4.916,0,0,0-2.224-1.034c-3.026,0-5.649,4.62-5.831,10.15Zm5.176,11.9a6.188,6.188,0,0,1-3.037-1.208,5.831,5.831,0,0,1-1.957-2.537,16.656,16.656,0,0,1-1.676-8.189c.219-6.51,3.39-11.515,7.29-11.515a6.041,6.041,0,0,1,3.052,1.19,5.68,5.68,0,0,1,1.941,2.555,16.323,16.323,0,0,1,1.677,8.189c-.219,6.475-3.39,11.515-7.29,11.515" transform="translate(-21.295 -9.965)" fill="#282847"/>
    <path id="Path_718" data-name="Path 718" d="M420.492,226.06a4.961,4.961,0,0,0,3.463-1.4,15.084,15.084,0,0,0-3.645,0c-1.385,0-2.7-1.086-3.645-2.975a14.808,14.808,0,0,1-1.495-7.491c.182-5.564,2.843-10.15,5.9-10.15s5.54,4.83,5.395,10.291c1.64-6.335-1.421-11.586-5.359-11.69s-7.29,5.005-7.29,11.515a16.667,16.667,0,0,0,1.677,8.189,5.828,5.828,0,0,0,1.964,2.516,6.178,6.178,0,0,0,3.029,1.194" transform="translate(-20.353 -9.967)" fill="#282847"/>
    <path id="Path_719" data-name="Path 719" d="M427.668,216.606a3.612,3.612,0,0,1,1.151-.879,3.79,3.79,0,0,1,2.878-.171,3.634,3.634,0,0,1,1.255.736c-.838-2.2-2.332-2.555-3.644-2.24a3.524,3.524,0,0,0-2.259,1.435c.364,1.05.51,1.12.619,1.12" transform="translate(-21.004 -10.523)" fill="#282847"/>
    <path id="Path_720" data-name="Path 720" d="M341.943,364.537a50.659,50.659,0,0,0,12.065-1.575,66.135,66.135,0,0,0,22.781-10.745,121.227,121.227,0,0,1-23.146,9.38c-5.649,1.4-19.646,3.885-28.466-3.99s-9.659-22.086-10.023-34.3c0-2.835-.183-5.531-.365-8.086-1.2-16.73,1.568-57.715,1.6-58.135-1.531.316-4.3,41.405-3.1,58.24.182,2.52.292,5.18.364,8.014.364,12.5.8,26.67,10.5,35.315a25.55,25.55,0,0,0,8.308,4.571,26.263,26.263,0,0,0,9.479,1.308" transform="translate(-15.395 -12.645)" fill="#282847"/>
    <path id="Path_721" data-name="Path 721" d="M366.4,345.5c5.431-15.015,1.859-86.134,1.676-89.145-1.421.805,2.26,73.919-2.406,88.2.584.91.656.945.729.945" transform="translate(-17.986 -12.609)" fill="#282847"/>
    <path id="Path_722" data-name="Path 722" d="M518.867,471.55c-1.2-18.41-3.864-49.384-3.9-49.7-1.458.456,1.239,31.5,3.171,49a.659.659,0,0,0,.214.494.718.718,0,0,0,.515.205" transform="translate(-25.308 -20.749)" fill="#282847"/>
    <path id="Path_723" data-name="Path 723" d="M379.169,471.586c.838-12.809,1.676-28.595,3.28-49a329.266,329.266,0,0,0-4.01,48.3.734.734,0,0,0,.232.477.79.79,0,0,0,.5.223" transform="translate(-18.613 -20.785)" fill="#282847"/>
    <path id="Path_724" data-name="Path 724" d="M386.3,373.685a39.143,39.143,0,0,0,1.567-8.155,13.344,13.344,0,0,0-2.3,7.351Z" transform="translate(-18.964 -17.978)" fill="#282847"/>
    <path id="Path_725" data-name="Path 725" d="M394.618,308.5c1.495-5.25,2.114-8.47,2.587-10.185-1.931,1.4-2.551,4.689-3.316,9.345.656.84.693.84.729.84" transform="translate(-19.373 -14.673)" fill="#282847"/>
    <path id="Path_726" data-name="Path 726" d="M440.605,314.038c.692-.91-3.644-16.275-3.644-16.275-1.459.385,2.734,15.715,2.734,15.715a.711.711,0,0,0,.335.461.761.761,0,0,0,.576.1" transform="translate(-21.477 -14.645)" fill="#282847"/>
    <path id="Path_727" data-name="Path 727" d="M340.292,263.079c12.575,0,25.3-2.17,25.3-6.37,0-2.275-3.244-4.06-9.367-5.18,5.759,2.52,7.91,4.094,7.91,5.18,0,2.064-9.077,4.935-23.838,4.935s-23.8-2.871-23.8-4.935c0-1.505,2.552-2.906,6.853-3.78-6.962,0-8.346,2.135-8.346,3.78,0,4.2,12.72,6.37,25.3,6.37" transform="translate(-15.493 -12.371)" fill="#282847"/>
    <path id="Path_728" data-name="Path 728" d="M145,385.6h62.438a7.557,7.557,0,0,0,1.4-.164,7.451,7.451,0,0,0,1.338-.419,7.326,7.326,0,0,0,1.228-.657,7.2,7.2,0,0,0,1.074-.871,7,7,0,0,0,.88-1.054,6.921,6.921,0,0,0,.653-1.2,6.78,6.78,0,0,0,.537-2.638v-84a6.781,6.781,0,0,0-.537-2.639,6.93,6.93,0,0,0-.653-1.2,7.041,7.041,0,0,0-.88-1.054,7.2,7.2,0,0,0-1.074-.871,7.363,7.363,0,0,0-1.228-.658,7.538,7.538,0,0,0-2.734-.582h-5.067c0,1.4,5.067,1.4,5.067,1.4a5.827,5.827,0,0,1,2.156.423,5.651,5.651,0,0,1,1.827,1.176,5.406,5.406,0,0,1,1.226,1.755,5.23,5.23,0,0,1,.439,2.071v84a5.174,5.174,0,0,1-.114,1.054,5.329,5.329,0,0,1-.85,1.943,5.51,5.51,0,0,1-.7.816,5.63,5.63,0,0,1-.855.67,5.8,5.8,0,0,1-.975.5,5.857,5.857,0,0,1-2.153.41H145a5.9,5.9,0,0,1-1.1-.1,5.777,5.777,0,0,1-2.03-.8,5.632,5.632,0,0,1-.855-.67,5.452,5.452,0,0,1-.7-.816,5.38,5.38,0,0,1-.525-.932,5.257,5.257,0,0,1-.44-2.065V342.833c-1.458,0-1.458,35.945-1.458,35.945a6.718,6.718,0,0,0,.165,1.32,6.8,6.8,0,0,0,.422,1.266,6.88,6.88,0,0,0,.664,1.167,7,7,0,0,0,.881,1.025,7.227,7.227,0,0,0,1.067.846,7.479,7.479,0,0,0,2.534,1.043A7.569,7.569,0,0,0,145,385.6" transform="translate(-6.782 -14.146)" fill="#282847"/>
    <path id="Path_729" data-name="Path 729" d="M138.61,309.329a99.928,99.928,0,0,0,.728-14.385,5.214,5.214,0,0,1,.44-2.071A5.4,5.4,0,0,1,141,291.118a5.669,5.669,0,0,1,1.827-1.177,5.844,5.844,0,0,1,2.156-.422h57.371c0-1.4-57.371-1.4-57.371-1.4a7.548,7.548,0,0,0-2.79.532,7.362,7.362,0,0,0-1.26.648,7.157,7.157,0,0,0-1.1.87,7.018,7.018,0,0,0-.906,1.061,6.889,6.889,0,0,0-.674,1.21,6.779,6.779,0,0,0-.555,2.678v13.65a.674.674,0,0,0,.326.474.725.725,0,0,0,.586.086" transform="translate(-6.773 -14.171)" fill="#282847"/>
    <path id="Path_730" data-name="Path 730" d="M148.925,345.216c5.322,0,13.814-.35,16.585-4.9s0-7-.292-7.28c-.912,1.12.911,2.8-.875,6.37-2.479,4.061-10.68,4.27-14.216,4.376a48.209,48.209,0,0,1-19.974-3.85,16.717,16.717,0,0,1-2.96-2.152,16.273,16.273,0,0,1-2.4-2.722,15.892,15.892,0,0,1-1.714-3.161,15.625,15.625,0,0,1-.95-3.446,32.424,32.424,0,0,1,.984-17.5c4.192-12.635,14.142-11.865,14.58-11.83,0-1.435-11.372-2.415-15.965,11.375a34.376,34.376,0,0,0-1.02,18.34,16.9,16.9,0,0,0,1.06,3.756,17.183,17.183,0,0,0,1.9,3.437,17.624,17.624,0,0,0,2.642,2.95,18.078,18.078,0,0,0,3.257,2.316,48.521,48.521,0,0,0,19.354,3.92" transform="translate(-5.898 -14.674)" fill="#282847"/>
    <path id="Path_731" data-name="Path 731" d="M99.642,367.344c10.425-39.34,21.578-53.025,21.87-53.165-1.64-.35-12.612,13.125-22.416,52.29.437.875.511.875.547.875" transform="translate(-4.874 -15.452)" fill="#282847"/>
    <path id="Path_732" data-name="Path 732" d="M245.985,404.266a28.054,28.054,0,0,0,7.29-.98c27.337-7.525,19.974-40.215,17.532-50.96l-1.859-8.224c-2.7-12.074-5.467-24.5-8.785-36.715-7.581-28-28.721-46.725-55.111-48.789,25.514,3.5,46.254,21.735,53.69,49.174,3.28,12.075,6.051,24.5,8.785,36.644.583,2.731,1.2,5.5,1.822,8.225,2.369,10.5,9.514,42-16.511,49.28-12.1,3.5-27.957-1.995-36.195-21.385,5.687,17.009,18.08,23.729,29.342,23.729" transform="translate(-10.085 -12.719)" fill="#282847"/>
    <path id="Path_733" data-name="Path 733" d="M255.641,366.93c-9.039-39.969-20.812-60.97-20.923-61.179-1.2.875,10.461,21.735,20.192,60.619a.637.637,0,0,0,.252.416.688.688,0,0,0,.478.145" transform="translate(-11.54 -15.038)" fill="#282847"/>
    <path id="Path_734" data-name="Path 734" d="M218.026,328.639a16.541,16.541,0,0,0,4.923-1.758,16.013,16.013,0,0,0,4.08-3.177,21.008,21.008,0,0,0,2.632-2.787,20.454,20.454,0,0,0,2.062-3.2,20.15,20.15,0,0,0,1.426-3.5,19.914,19.914,0,0,0,.1-11.161,20.173,20.173,0,0,0-1.366-3.527,20.525,20.525,0,0,0-2.007-3.23,22.468,22.468,0,0,0-7.582-6.23c2.443,3.045,4.3,4.41,6.379,7a19.146,19.146,0,0,1,1.865,3.014,18.772,18.772,0,0,1,1.267,3.288,18.583,18.583,0,0,1-.1,10.4,18.759,18.759,0,0,1-1.328,3.266,19.181,19.181,0,0,1-1.92,2.982,19.72,19.72,0,0,1-2.45,2.6,14.945,14.945,0,0,1-8.129,4.55c-.511,1.26-.22,1.47.146,1.47" transform="translate(-10.703 -14.267)" fill="#282847"/>
    <path id="Path_735" data-name="Path 735" d="M79.025,380.209A198.259,198.259,0,0,1,46,353.715a100.631,100.631,0,0,0,14.961,14.846A103.116,103.116,0,0,0,78.806,380.1a.622.622,0,0,0,.219.106" transform="translate(-2.263 -17.397)" fill="#282847"/>
    <path id="Path_736" data-name="Path 736" d="M256.908,329.283a129.3,129.3,0,0,0,11.149-17.53,127.218,127.218,0,0,0,8.139-19,125.483,125.483,0,0,0,6.518-40.473q-.007-3.173-.171-6.343t-.487-6.329q-.321-3.158-.8-6.3t-1.112-6.254q-.633-3.115-1.421-6.2T277,214.737q-.938-3.042-2.029-6.039t-2.328-5.939q-1.237-2.944-2.619-5.826t-2.906-5.7q-1.525-2.815-3.186-5.559t-3.458-5.406q-1.8-2.664-3.722-5.243t-3.98-5.066q-2.052-2.487-4.225-4.878t-4.464-4.679q-2.29-2.289-4.69-4.47t-4.908-4.249q-2.507-2.068-5.113-4.019t-5.306-3.78q-2.7-1.83-5.489-3.534t-5.657-3.277q-2.871-1.575-5.814-3.016t-5.958-2.745q-3.014-1.3-6.087-2.469t-6.2-2.188q-3.129-1.024-6.3-1.9t-6.392-1.611q-3.216-.732-6.465-1.316t-6.523-1.018q-3.273-.434-6.565-.719t-6.594-.416q-3.3-.133-6.607-.114t-6.6.188q-3.3.17-6.589.491t-6.556.791q-3.269.472-6.51,1.092t-6.447,1.388q-3.208.767-6.372,1.682t-6.28,1.971q-3.116,1.058-6.177,2.257t-6.057,2.538q-3,1.338-5.924,2.812t-5.777,3.08q-2.851,1.607-5.618,3.341t-5.445,3.6q-2.678,1.86-5.261,3.839T52.718,152.7q-2.482,2.1-4.856,4.3t-4.637,4.521q-2.262,2.313-4.406,4.728t-4.166,4.925q-2.022,2.51-3.917,5.11t-3.66,5.284q-1.763,2.684-3.393,5.446t-3.118,5.594q-1.49,2.834-2.837,5.732T15.18,204.2q-1.2,2.957-2.255,5.964t-1.957,6.06q-.9,3.054-1.653,6.143t-1.346,6.213q-.6,3.122-1.035,6.267t-.724,6.308c7.29-67.48,67.284-120.435,138-120.435q4.677,0,9.345.305t9.3.916q4.635.61,9.214,1.523t9.085,2.123q4.5,1.209,8.912,2.713t8.7,3.29q4.29,1.787,8.445,3.852t8.152,4.4q4,2.332,7.82,4.92t7.453,5.422q3.63,2.832,7.05,5.9t6.616,6.344q3.195,3.28,6.15,6.762t5.654,7.15q2.7,3.667,5.134,7.5t4.59,7.822q2.155,3.986,4.023,8.1t3.437,8.349q1.572,4.23,2.837,8.554t2.223,8.72q.957,4.4,1.6,8.846t.967,8.93q.324,4.48.329,8.972t-.307,8.973q-.315,4.483-.945,8.932t-1.577,8.849q-.946,4.4-2.2,8.726t-2.816,8.561q-1.56,4.234-3.417,8.356t-4,8.113q-2.145,3.992-4.571,7.833t-5.115,7.514c.328,1.26.474,1.3.62,1.3" transform="translate(-0.305 -5.88)" fill="#282847"/>
    <path id="Path_737" data-name="Path 737" d="M431.564,246.331a38.823,38.823,0,0,0,14.58-3.5c-12.9,3.71-20.011,1.89-23.8-.49a9.121,9.121,0,0,1-2.644-2.182,8.737,8.737,0,0,1-1.62-2.963V225.541c-1.495,0-1.495,11.83-1.495,11.83a9.733,9.733,0,0,0,1.782,3.653,10.186,10.186,0,0,0,3.139,2.681,18.032,18.032,0,0,0,10.061,2.625" transform="translate(-20.49 -11.093)" fill="#282847"/>
    <path id="Path_738" data-name="Path 738" d="M177.872,442.978c.765-.735.765-42,.765-42-1.495,0-1.495,41.089-1.495,41.089a.7.7,0,0,0-.006.327.735.735,0,0,0,.143.3.746.746,0,0,0,.262.207.777.777,0,0,0,.33.079" transform="translate(-8.712 -19.722)" fill="#282847"/>
    <path id="Path_739" data-name="Path 739" d="M175.431,241.252a9.941,9.941,0,0,0,2.77-.385,19.263,19.263,0,0,1-5.831-1.96,8.666,8.666,0,0,1-1.823-2.945,8.4,8.4,0,0,1-.51-3.391c-1.495,0-1.677,5.04,1.421,7.42a6.112,6.112,0,0,0,3.973,1.26" transform="translate(-8.312 -11.439)" fill="#282847"/>
    <path id="Path_740" data-name="Path 740" d="M157.764,311.824h42.354c0-1.435-42.172-1.435-42.172-1.435-.948,1.12-.62,1.435-.183,1.435" transform="translate(-7.738 -15.266)" fill="#282847"/>
    <path id="Path_741" data-name="Path 741" d="M168.154,326.18H200.63c0-1.435-32.294-1.435-32.294-1.435-.947,1.12-.51,1.435-.182,1.435" transform="translate(-8.251 -15.972)" fill="#282847"/>
    <path id="Path_742" data-name="Path 742" d="M168.23,340.573h32.4c0-1.435-32.221-1.435-32.221-1.435-.911,1.085-.583,1.435-.182,1.435" transform="translate(-8.255 -16.68)" fill="#282847"/>
    <path id="Path_743" data-name="Path 743" d="M157.764,354.892h42.354c0-1.435-42.172-1.435-42.172-1.435-.948,1.12-.62,1.435-.183,1.435" transform="translate(-7.738 -17.385)" fill="#282847"/>
    <path id="Path_744" data-name="Path 744" d="M195.588,193.746a19.892,19.892,0,0,0,2.479-4.025c-1.349-.63-3.135,2.975-3.135,2.975.437,1.015.547,1.05.656,1.05" transform="translate(-9.588 -9.328)" fill="#282847"/>
    <path id="Path_745" data-name="Path 745" d="M333.563,158.472h36.813c0-1.435-36.813-1.435-36.813-1.435-.876,1.12-.4,1.435,0,1.435" transform="translate(-16.382 -7.724)" fill="#282847"/>
    <path id="Path_746" data-name="Path 746" d="M333.563,167.307h36.813c0-1.435-36.813-1.435-36.813-1.435-.876,1.12-.4,1.435,0,1.435" transform="translate(-16.382 -8.158)" fill="#282847"/>
    <path id="Path_747" data-name="Path 747" d="M421.569,430.979c5.613,0,10.023-10.745,10.023-24.5,0-11.9-2.88-20.615-7.946-23.975a24.281,24.281,0,0,0-4.812-2.065c-.436,1.365,2.625,2.345,3.973,3.22,4.63,3.115,7.29,11.41,7.29,22.82,0,13.79-4.41,23.03-8.529,23.03-2.515,0-4.994-3.29-6.634-8.785.437,6.684,3.39,10.255,6.634,10.255" transform="translate(-20.408 -18.712)" fill="#282847"/>
    <path id="Path_748" data-name="Path 748" d="M529.263,414.608a27.144,27.144,0,0,1-2.288-6.639,26.935,26.935,0,0,1,.808-13.855,27.471,27.471,0,0,1,3.047-6.351,24.652,24.652,0,0,1,4.377-5.156,25.416,25.416,0,0,1,5.66-3.836,26.1,26.1,0,0,1,6.526-2.233,26.452,26.452,0,0,1,6.911-.464,24.154,24.154,0,0,0-14.207,1.632,23.613,23.613,0,0,0-3.172,1.7,23.257,23.257,0,0,0-2.859,2.151,22.8,22.8,0,0,0-2.477,2.55,22.311,22.311,0,0,0-2.034,2.89,25.792,25.792,0,0,0-1.83,3.124A25.237,25.237,0,0,0,525.1,400.5a25.2,25.2,0,0,0,.781,7.112,25.518,25.518,0,0,0,2.76,6.643.649.649,0,0,0,.619.35" transform="translate(-25.826 -18.477)" fill="#282847"/>
  </g>
</svg>
