<svg xmlns="http://www.w3.org/2000/svg" xmlns:xlink="http://www.w3.org/1999/xlink" width="234.682" height="36.388" viewBox="0 0 234.682 36.388">
  <defs>
    <clipPath id="clip-path">
      <rect id="Rectangle_8470" data-name="Rectangle 8470" width="234.682" height="36.388" fill="none"/>
    </clipPath>
  </defs>
  <g id="Group_48687" data-name="Group 48687" transform="translate(0 0)">
    <path id="Path_35434" data-name="Path 35434" d="M39.966,0,33.047,25.16,26.1,0,19.982.048,13.064,25.16,6.12,0H0L10.185,34.837h5.758l7.088-24.772,7.137,24.772h5.757L46.086,0Z" transform="translate(0)" fill="#00aac1"/>
    <g id="Group_48684" data-name="Group 48684" transform="translate(0 0)">
      <g id="Group_48683" data-name="Group 48683" clip-path="url(#clip-path)">
        <path id="Path_35435" data-name="Path 35435" d="M60.386,35.8a13.774,13.774,0,0,1-6.967-1.717,12.148,12.148,0,0,1-4.68-4.766A14.287,14.287,0,0,1,47.057,22.3,15.893,15.893,0,0,1,48.7,14.865a12.04,12.04,0,0,1,4.573-4.9,12.994,12.994,0,0,1,6.773-1.741,12.164,12.164,0,0,1,6.908,1.9,11.262,11.262,0,0,1,4.22,5.359,18.322,18.322,0,0,1,1.042,8.153H66.435V21.506q-.025-4.257-1.5-6.217a5.438,5.438,0,0,0-4.646-1.96,6.356,6.356,0,0,0-5.322,2.213q-1.741,2.215-1.741,6.471a9.613,9.613,0,0,0,1.741,6.145,6.119,6.119,0,0,0,5.08,2.178,6.982,6.982,0,0,0,3.715-.956,6.249,6.249,0,0,0,2.406-2.77l5.758,1.742a11.7,11.7,0,0,1-4.633,5.491,12.757,12.757,0,0,1-6.907,1.96m-9-16.572H69.363v4.4H51.387Z" transform="translate(-1.381 -0.242)" fill="#00aac1"/>
        <path id="Path_35436" data-name="Path 35436" d="M77.762,35.078V8.95h5.2v8.1h.7V35.078Zm18.12,0V22.5a24.607,24.607,0,0,0-.17-2.733,9.808,9.808,0,0,0-.785-2.892,5.608,5.608,0,0,0-1.839-2.286,5.472,5.472,0,0,0-3.3-.895,6.929,6.929,0,0,0-2.2.362A5.024,5.024,0,0,0,85.613,15.3,6.249,6.249,0,0,0,84.2,17.72a12.2,12.2,0,0,0-.533,3.931l-3.458-1.476A13.852,13.852,0,0,1,81.5,14.128a10.29,10.29,0,0,1,3.81-4.318A11.268,11.268,0,0,1,91.5,8.2a10.473,10.473,0,0,1,4.791.968,8.462,8.462,0,0,1,3,2.467,10.757,10.757,0,0,1,1.644,3.193,16.35,16.35,0,0,1,.689,3.205q.157,1.511.157,2.456V35.078Z" transform="translate(-2.282 -0.241)" fill="#00aac1"/>
        <path id="Path_35437" data-name="Path 35437" d="M109.489,34.837V0h5.83V29.37h15.387v5.468Z" transform="translate(-3.213 0)" fill="#fff"/>
        <path id="Path_35438" data-name="Path 35438" d="M147.08,35.805a13.009,13.009,0,0,1-6.847-1.767,12.025,12.025,0,0,1-4.536-4.875,15.332,15.332,0,0,1-1.608-7.149,15.144,15.144,0,0,1,1.645-7.209,12.123,12.123,0,0,1,4.572-4.839,14.148,14.148,0,0,1,13.644.024,12.114,12.114,0,0,1,4.548,4.875,15.242,15.242,0,0,1,1.621,7.149,15.2,15.2,0,0,1-1.633,7.172,12.115,12.115,0,0,1-4.56,4.863,13.067,13.067,0,0,1-6.847,1.755m0-5.468a5.984,5.984,0,0,0,5.177-2.323,9.933,9.933,0,0,0,1.693-6,9.779,9.779,0,0,0-1.717-6.06,6.061,6.061,0,0,0-5.153-2.262,6.6,6.6,0,0,0-3.859,1.052,6.171,6.171,0,0,0-2.236,2.927,11.973,11.973,0,0,0-.726,4.343,9.72,9.72,0,0,0,1.73,6.06,6.009,6.009,0,0,0,5.092,2.263" transform="translate(-3.935 -0.242)" fill="#fff"/>
        <path id="Path_35439" data-name="Path 35439" d="M177.693,35.805a12.655,12.655,0,0,1-6.9-1.8,11.773,11.773,0,0,1-4.367-4.923,16.24,16.24,0,0,1-1.536-7.064,15.9,15.9,0,0,1,1.584-7.125A11.9,11.9,0,0,1,170.919,10a12.771,12.771,0,0,1,6.846-1.777,12.491,12.491,0,0,1,7.537,2.237,10.3,10.3,0,0,1,4.027,6.109l-5.805,1.572a6.4,6.4,0,0,0-2.251-3.279,5.829,5.829,0,0,0-3.58-1.173,5.865,5.865,0,0,0-5.927,4.04,12.2,12.2,0,0,0-.7,4.282,10.009,10.009,0,0,0,1.669,6.024,6.631,6.631,0,0,0,8.623,1.235,6.406,6.406,0,0,0,2.021-3.074l5.951,1.332a11.224,11.224,0,0,1-4.233,6.133,12.484,12.484,0,0,1-7.4,2.141" transform="translate(-4.839 -0.242)" fill="#fff"/>
        <path id="Path_35440" data-name="Path 35440" d="M195.027,34.837,195.075,0h5.9V21.29l9.557-12.581h7.282L207.679,21.773l11.007,13.064H210.97l-9.992-12.58v12.58Z" transform="translate(-5.723 0)" fill="#fff"/>
        <path id="Path_35441" data-name="Path 35441" d="M241.337,29.768a7.28,7.28,0,1,1-7.28-7.28,7.28,7.28,0,0,1,7.28,7.28" transform="translate(-6.655 -0.66)" fill="#00aac1"/>
      </g>
    </g>
  </g>
</svg>
